<svg width="607" height="605" viewBox="0 0 607 605" fill="none" xmlns="http://www.w3.org/2000/svg">
<path d="M98.9795 0V504.394L228.813 474.425V42.3726L98.9795 0Z" fill="url(#paint0_linear_14_254)"/>
<path d="M98.979 0H89.3398V504.394H98.979V0Z" fill="white"/>
<path d="M64 161.07L561.964 128V453.586L64 424.639V161.07Z" fill="url(#paint1_linear_14_254)"/>
<path d="M350.246 275.802L337.601 277.352V603.977L350.246 605V275.802Z" fill="white"/>
<path d="M385.641 275.802V443.246L418.696 445.308L416.635 573.48L350.246 605V275.802H385.641Z" fill="url(#paint2_linear_14_254)"/>
<path d="M517.056 229L511.911 231.786V109.304L516.157 113.552L517.056 229Z" fill="white"/>
<path d="M409.631 77.784V199.227L600.243 187.863V57.6287L409.631 77.784Z" fill="url(#paint3_linear_14_254)"/>
<path d="M607 187.165L600.631 187.863V57.6287L607 63.0551V187.165Z" fill="white"/>
<path d="M172.791 296.391C197.184 296.391 216.958 276.608 216.958 252.205C216.958 227.801 197.184 208.018 172.791 208.018C148.399 208.018 128.625 227.801 128.625 252.205C128.625 276.608 148.399 296.391 172.791 296.391Z" fill="url(#paint4_linear_14_254)"/>
<path d="M343.924 210.344C350.06 210.344 355.035 205.367 355.035 199.227C355.035 193.088 350.06 188.111 343.924 188.111C337.787 188.111 332.812 193.088 332.812 199.227C332.812 205.367 337.787 210.344 343.924 210.344Z" fill="url(#paint5_linear_14_254)"/>
<path d="M91.0906 252.205C91.0906 252.205 -19.1082 328.423 4.98955 370.454C29.0873 412.486 238.482 314.299 323.886 223.522" stroke="white" stroke-width="2" stroke-miterlimit="10" stroke-linecap="round"/>
<path d="M562.508 453.758L576.656 449.711V189.258L562.508 190.111V453.758Z" fill="white"/>
<path d="M467.496 112.916V231.786H511.91V109.304L467.496 112.916Z" fill="url(#paint6_linear_14_254)"/>
<defs>
<linearGradient id="paint0_linear_14_254" x1="98.9795" y1="252.205" x2="228.813" y2="252.205" gradientUnits="userSpaceOnUse">
<stop offset="0.14" stop-color="#04D1B2"/>
<stop offset="0.15" stop-color="#04CAB5"/>
<stop offset="0.39" stop-color="#0A25FB"/>
<stop offset="0.52" stop-color="#3213FD"/>
<stop offset="0.67" stop-color="#5E00FF"/>
<stop offset="0.73" stop-color="#5D00FC"/>
<stop offset="0.78" stop-color="#5B02F3"/>
<stop offset="0.82" stop-color="#5604E3"/>
<stop offset="0.86" stop-color="#5008CD"/>
<stop offset="0.89" stop-color="#490CB0"/>
<stop offset="0.93" stop-color="#3F128C"/>
<stop offset="0.96" stop-color="#331862"/>
<stop offset="0.99" stop-color="#271F33"/>
<stop offset="1" stop-color="#222222"/>
</linearGradient>
<linearGradient id="paint1_linear_14_254" x1="64" y1="290.793" x2="561.964" y2="290.793" gradientUnits="userSpaceOnUse">
<stop stop-color="#27FFB8"/>
<stop offset="0.22" stop-color="#0DA9AF"/>
<stop offset="0.55" stop-color="#0E0AFF"/>
<stop offset="0.81" stop-color="#5700F6"/>
</linearGradient>
<linearGradient id="paint2_linear_14_254" x1="350.246" y1="440.393" x2="418.696" y2="440.393" gradientUnits="userSpaceOnUse">
<stop offset="0.14" stop-color="#04D1B2"/>
<stop offset="0.15" stop-color="#04CAB5"/>
<stop offset="0.39" stop-color="#0A25FB"/>
<stop offset="0.52" stop-color="#3213FD"/>
<stop offset="0.67" stop-color="#5E00FF"/>
<stop offset="0.73" stop-color="#5D00FC"/>
<stop offset="0.78" stop-color="#5B02F3"/>
<stop offset="0.82" stop-color="#5604E3"/>
<stop offset="0.86" stop-color="#5008CD"/>
<stop offset="0.89" stop-color="#490CB0"/>
<stop offset="0.93" stop-color="#3F128C"/>
<stop offset="0.96" stop-color="#331862"/>
<stop offset="0.99" stop-color="#271F33"/>
<stop offset="1" stop-color="#222222"/>
</linearGradient>
<linearGradient id="paint3_linear_14_254" x1="409.646" y1="128.42" x2="600.259" y2="128.42" gradientUnits="userSpaceOnUse">
<stop stop-color="#36FFE3"/>
<stop offset="0.09" stop-color="#2CC1EA"/>
<stop offset="0.18" stop-color="#238AF0"/>
<stop offset="0.27" stop-color="#1B5CF6"/>
<stop offset="0.35" stop-color="#1638FA"/>
<stop offset="0.43" stop-color="#111FFD"/>
<stop offset="0.5" stop-color="#0F0FFE"/>
<stop offset="0.55" stop-color="#0E0AFF"/>
<stop offset="0.81" stop-color="#5700F6"/>
</linearGradient>
<linearGradient id="paint4_linear_14_254" x1="128.625" y1="252.205" x2="216.958" y2="252.205" gradientUnits="userSpaceOnUse">
<stop stop-color="#27FFB8"/>
<stop offset="0.22" stop-color="#0DA9AF"/>
<stop offset="0.55" stop-color="#0E0AFF"/>
<stop offset="0.81" stop-color="#5700F6"/>
</linearGradient>
<linearGradient id="paint5_linear_14_254" x1="332.812" y1="199.227" x2="355.035" y2="199.227" gradientUnits="userSpaceOnUse">
<stop stop-color="white"/>
</linearGradient>
<linearGradient id="paint6_linear_14_254" x1="467.496" y1="170.545" x2="511.926" y2="170.545" gradientUnits="userSpaceOnUse">
<stop stop-color="white"/>
<stop offset="0.06" stop-color="#94EBDE"/>
<stop offset="0.14" stop-color="#04D1B2"/>
<stop offset="0.15" stop-color="#04CAB5"/>
<stop offset="0.39" stop-color="#0A25FB"/>
<stop offset="0.52" stop-color="#3213FD"/>
<stop offset="0.67" stop-color="#5E00FF"/>
<stop offset="0.73" stop-color="#5D00FC"/>
<stop offset="0.78" stop-color="#5B02F3"/>
<stop offset="0.82" stop-color="#5604E3"/>
<stop offset="0.86" stop-color="#5008CD"/>
<stop offset="0.89" stop-color="#490CB0"/>
<stop offset="0.93" stop-color="#3F128C"/>
<stop offset="0.96" stop-color="#331862"/>
<stop offset="0.99" stop-color="#271F33"/>
<stop offset="1" stop-color="#222222"/>
</linearGradient>
</defs>
</svg>
