<svg xmlns="http://www.w3.org/2000/svg" xmlns:xlink="http://www.w3.org/1999/xlink" viewBox="0 0 469.4 426.52"><defs><style>.cls-1{fill:url(#무제_그라디언트_475);}.cls-2{fill:none;}.cls-3{fill:url(#무제_그라디언트_520);}.cls-4{fill:#fff;}.cls-5{fill:url(#무제_그라디언트_525);}.cls-6{fill:url(#무제_그라디언트_495);}.cls-7{fill:url(#무제_그라디언트_495-2);}.cls-8{fill:url(#무제_그라디언트_500);}.cls-9{fill:url(#무제_그라디언트_455);}.cls-10{fill:url(#무제_그라디언트_495-3);}.cls-11{fill:url(#무제_그라디언트_495-4);}</style><linearGradient id="무제_그라디언트_475" x1="99.8" y1="204.9" x2="365.94" y2="204.9" gradientUnits="userSpaceOnUse"><stop offset="0" stop-color="#fff"/><stop offset="0.22" stop-color="#00ffa7"/><stop offset="0.55" stop-color="#0f0aff"/><stop offset="0.81" stop-color="#6000ff"/><stop offset="1"/></linearGradient><linearGradient id="무제_그라디언트_520" x1="-8195" y1="-574.93" x2="-8067.37" y2="-574.93" gradientTransform="translate(-7911.82 137.15) rotate(176.66)" gradientUnits="userSpaceOnUse"><stop offset="0" stop-color="#fff"/><stop offset="0" stop-color="#f6fffc"/><stop offset="0" stop-color="#c8ffee"/><stop offset="0" stop-color="#9dffe1"/><stop offset="0" stop-color="#77ffd5"/><stop offset="0" stop-color="#57ffcb"/><stop offset="0" stop-color="#3bffc3"/><stop offset="0" stop-color="#25ffbc"/><stop offset="0" stop-color="#14ffb7"/><stop offset="0" stop-color="#09ffb4"/><stop offset="0" stop-color="#02ffb2"/><stop offset="0" stop-color="#00ffb1"/><stop offset="0.22" stop-color="#00abb0"/><stop offset="0.55" stop-color="#0f0aff"/><stop offset="0.81" stop-color="#6000ff"/><stop offset="1"/></linearGradient><linearGradient id="무제_그라디언트_525" x1="174.51" y1="223.25" x2="284.22" y2="223.25" gradientUnits="userSpaceOnUse"><stop offset="0" stop-color="#fff"/><stop offset="0" stop-color="#f6fffc"/><stop offset="0" stop-color="#c8ffee"/><stop offset="0" stop-color="#9dffe1"/><stop offset="0" stop-color="#77ffd5"/><stop offset="0" stop-color="#57ffcb"/><stop offset="0" stop-color="#3bffc3"/><stop offset="0" stop-color="#25ffbc"/><stop offset="0" stop-color="#14ffb7"/><stop offset="0" stop-color="#09ffb4"/><stop offset="0" stop-color="#02ffb2"/><stop offset="0" stop-color="#00ffb1"/><stop offset="0.22" stop-color="#00abb0"/><stop offset="0.55" stop-color="#0f0aff"/><stop offset="0.81" stop-color="#6000ff"/></linearGradient><linearGradient id="무제_그라디언트_495" x1="58.51" y1="226.71" x2="363.63" y2="226.71" gradientUnits="userSpaceOnUse"><stop offset="0" stop-color="#fff"/><stop offset="0.01" stop-color="#f9f9f9"/><stop offset="0.16" stop-color="#c1c1c1"/><stop offset="0.31" stop-color="#909090"/><stop offset="0.46" stop-color="#696969"/><stop offset="0.6" stop-color="#4a4a4a"/><stop offset="0.74" stop-color="#343434"/><stop offset="0.88" stop-color="#262626"/><stop offset="1" stop-color="#222"/></linearGradient><linearGradient id="무제_그라디언트_495-2" x1="95.6" y1="207.67" x2="400.71" y2="207.67" xlink:href="#무제_그라디언트_495"/><linearGradient id="무제_그라디언트_500" x1="56.87" y1="225.11" x2="380.07" y2="225.11" gradientUnits="userSpaceOnUse"><stop offset="0" stop-color="#fff"/><stop offset="1" stop-color="#fff"/></linearGradient><linearGradient id="무제_그라디언트_455" x1="1.35" y1="259.62" x2="468.05" y2="259.62" gradientUnits="userSpaceOnUse"><stop offset="0" stop-color="#fff"/><stop offset="0.22" stop-color="#00b2ff"/><stop offset="0.55" stop-color="#0f0aff"/><stop offset="0.81" stop-color="#6000ff"/><stop offset="1"/></linearGradient><linearGradient id="무제_그라디언트_495-3" x1="0.71" y1="183.08" x2="467.41" y2="183.08" xlink:href="#무제_그라디언트_495"/><linearGradient id="무제_그라디언트_495-4" x1="126.14" y1="218.54" x2="416.52" y2="218.54" gradientTransform="matrix(0.99, 0, 0, 0.99, -23.87, -5.1)" xlink:href="#무제_그라디언트_495"/></defs><g id="레이어_2" data-name="레이어 2"><g id="레이어_1-2" data-name="레이어 1"><path class="cls-1" d="M364.06,22.81c2.81-11.26,2.54-18.38-1.3-20.28-15.91-7.88-87,76.33-158.7,188.09S87.07,399.38,103,407.26c3.84,1.91,10.91-1.58,20.42-9.51,8.81-35.34,48-111.6,102.38-196.36S334.2,47.71,364.06,22.81Z"/><path d="M365.44,5.79A2.32,2.32,0,0,0,363.85,5Z"/><path class="cls-2" d="M176,238.81c-19.51,32.48-36.55,63.37-49.51,89.91-18.61,38.08-27.8,65.28-25.22,74.64a4.07,4.07,0,0,0,1.94,2.78c2.57,1.26,14.27,1.47,57-48.94,17.08-20.17,36-44.8,55.53-72.21A63.9,63.9,0,0,1,176,238.81Z"/><path class="cls-2" d="M365.22,6.08a4,4,0,0,0-1.94-2.78C360.71,2,349,1.83,306.32,52.24c-24.79,29.28-53.45,67.95-82.27,110.91A63.67,63.67,0,0,1,284.22,181c22.13-36.26,41.44-70.94,55.78-100.29C358.61,42.64,367.8,15.44,365.22,6.08Z"/><path class="cls-3" d="M286.3,183.27q-10.94,17.88-22.93,36.5C248.43,243,233.31,265.27,218.55,286A63.8,63.8,0,0,0,286.3,183.27Z"/><path class="cls-4" d="M160.12,357.2c-42.69,50.41-54.39,50.2-57,48.94a4.07,4.07,0,0,1-1.94-2.78c-2.58-9.36,6.61-36.56,25.22-74.64,13-26.54,30-57.43,49.51-89.91-.32-1.47-.57-3-.78-4.47C124.66,318,93.41,386.14,98.38,404.15a6.86,6.86,0,0,0,3.48,4.64,6.73,6.73,0,0,0,3,.65c9.89,0,29.2-16.89,57.52-50.33,17.27-20.4,36.42-45.34,56.18-73.1-1-.32-1.94-.66-2.9-1C196.12,312.4,177.2,337,160.12,357.2Z"/><path class="cls-4" d="M306.32,52.24C349,1.83,360.71,2,363.28,3.3a4,4,0,0,1,1.94,2.78c2.58,9.36-6.61,36.56-25.22,74.64-14.34,29.35-33.65,64-55.78,100.29.71.74,1.41,1.49,2.08,2.26C339.72,96,373.2,23.89,368.06,5.29A6.86,6.86,0,0,0,364.58.65c-8.63-4.26-29,12.46-60.5,49.67-25.41,30-54.84,69.81-84.36,114,1.42-.43,2.86-.81,4.33-1.14C252.87,120.19,281.53,81.52,306.32,52.24Z"/><path class="cls-4" d="M286.3,183.27c-.67-.77-1.37-1.52-2.08-2.26-7.48,12.25-15.28,24.69-23.32,37.16-15.09,23.4-30.35,45.92-45.25,66.82,1,.36,1.92.7,2.9,1,14.76-20.74,29.88-43.06,44.82-66.24Q275.36,201.19,286.3,183.27Z"/><path class="cls-5" d="M234.61,161.63a63.07,63.07,0,0,0-10.56,1.52c-1.47.33-2.91.71-4.33,1.14a63.84,63.84,0,0,0-45.1,64.76c.1,1.79.3,3.55.55,5.29.21,1.51.46,3,.78,4.47A63.9,63.9,0,0,0,215.65,285c14.9-20.9,30.16-43.42,45.25-66.82,8-12.47,15.84-24.91,23.32-37.16A63.67,63.67,0,0,0,234.61,161.63Z"/><path class="cls-6" d="M155.24,270C86.56,173.36,62.26,70.51,95.6,28.55a48.92,48.92,0,0,0-12.29,6.3c-47.22,33.56-25,145.93,49.65,251S306.4,448.91,353.63,415.36a49.32,49.32,0,0,0,10-9.52C313,423.5,223.92,366.7,155.24,270Z"/><path class="cls-7" d="M326.27,148.52C251.62,43.45,152.82-14.53,105.6,19a48.84,48.84,0,0,0-10,9.53C146.19,10.88,235.31,67.68,304,164.35s93,199.53,59.64,241.49a49,49,0,0,0,12.28-6.31C423.14,366,400.91,253.6,326.27,148.52Z"/><path class="cls-8" d="M321.14,426.52c-19.59,0-42.87-7.57-68.38-22.54-41.87-24.57-84.88-66.19-121.11-117.19S70.27,181.47,60.85,133.85C51.35,85.78,59,50.16,82.38,33.54s59.55-12.11,101.8,12.69c41.87,24.57,84.89,66.19,121.12,117.19s61.37,105.32,70.79,152.94c9.51,48.07,1.86,83.69-21.53,100.31C345.29,423.25,334,426.52,321.14,426.52ZM115.84,26.89C103.63,26.89,93,30,84.25,36.17,62,52,54.77,86.47,64,133.22c9.34,47.19,34.29,101.07,70.26,151.7S212.9,376.86,254.39,401.2c41.1,24.12,76,28.68,98.31,12.84s29.48-50.3,20.23-97.05c-9.33-47.19-34.28-101.07-70.26-151.7S224,73.36,182.55,49C157.54,34.33,134.82,26.89,115.84,26.89Z"/><path class="cls-9" d="M236.5,283.88C117.93,285.81,19.11,259.5,3,223.62a24.73,24.73,0,0,0-1.65,9.62c1.35,40.66,106.9,71.92,235.77,69.82S469.38,266.3,468,225.64a25.11,25.11,0,0,0-2.28-9.56C452,252.45,355.06,282,236.5,283.88Z"/><path class="cls-10" d="M231.63,139.64C102.76,141.74-.62,176.4.73,217.06A25.48,25.48,0,0,0,3,226.62c13.71-36.37,110.69-65.86,229.25-67.79s217.39,24.37,233.49,60.25a24.73,24.73,0,0,0,1.65-9.62C466.06,168.8,360.5,137.54,231.63,139.64Z"/><path class="cls-4" d="M224.83,304.51C167,304.51,112.75,298,71,285.82,25.91,272.7.68,254.49,0,234.57c-.26-7.8,3.25-15.51,10.42-22.92,30-30.94,119.13-52.84,221.81-54.48l0,1.33,0-1.33c62.46-1,121.46,5.61,166.11,18.59,45.14,13.13,70.36,31.33,71,51.26.26,7.8-3.24,15.51-10.42,22.91-30,30.95-119.13,52.84-221.81,54.48C233,304.48,228.91,304.51,224.83,304.51Zm19.75-144.79q-6.12,0-12.29.1c-50.51.81-98.38,6.5-138.44,16.46-38.58,9.59-67.51,22.8-81.46,37.2-6.66,6.87-9.92,13.93-9.68,21,.63,18.7,25.17,36,69.1,48.8,44.4,12.91,103.11,19.48,165.3,18.48,50.51-.8,98.38-6.5,138.44-16.46,38.58-9.59,67.51-22.8,81.46-37.19,6.66-6.87,9.91-13.94,9.68-21-.63-18.69-25.17-36-69.1-48.8C356.12,166.24,302.18,159.72,244.58,159.72Z"/><path class="cls-11" d="M386.83,12a5.58,5.58,0,0,0-.92-.33h0L366.37,2c1.52,1.56,3.11,6.26-.49,20.33-9.35,35.89-41.21,101.3-95.9,187.14C214.89,296.1,153.39,374,121,399.59c0,0-12.44,11.82-19.78,9.9L122.26,420c16.14,7.9,88.45-77,161.5-189.68S403,19.93,386.83,12Z"/></g></g></svg>