<svg xmlns="http://www.w3.org/2000/svg" xmlns:xlink="http://www.w3.org/1999/xlink" viewBox="0 0 900.91 446.19"><defs><style>.cls-1{fill:#f9f9f9;}.cls-2{fill:#111;}.cls-3{fill:#fff;}.cls-4{fill:url(#무제_그라디언트_440);}.cls-5{fill:url(#무제_그라디언트_525);}.cls-6{fill:url(#무제_그라디언트_396);}.cls-7{fill:url(#무제_그라디언트_525-2);}.cls-8{fill:url(#무제_그라디언트_434);}.cls-9{fill:url(#무제_그라디언트_525-3);}.cls-10{fill:url(#무제_그라디언트_390);}</style><linearGradient id="무제_그라디언트_440" x1="448.38" y1="127.75" x2="448.38" y2="251.3" gradientUnits="userSpaceOnUse"><stop offset="0" stop-color="#fff"/><stop offset="0.22" stop-color="#005f9f"/><stop offset="0.35" stop-color="#5141d8"/><stop offset="0.43" stop-color="#8a2cff"/><stop offset="0.47" stop-color="#7626da"/><stop offset="0.55" stop-color="#43157c"/><stop offset="0.65"/><stop offset="0.68" stop-color="#040404"/><stop offset="0.71" stop-color="#121212"/><stop offset="0.75" stop-color="#272727"/><stop offset="0.78" stop-color="#464646"/><stop offset="0.82" stop-color="#6d6d6d"/><stop offset="0.86" stop-color="#9d9d9d"/><stop offset="0.89" stop-color="#d5d5d5"/><stop offset="0.92" stop-color="#fff"/></linearGradient><linearGradient id="무제_그라디언트_525" x1="-9912.35" y1="-702.84" x2="-9864.75" y2="-702.84" gradientTransform="translate(-8330.53 4359.4) rotate(150)" gradientUnits="userSpaceOnUse"><stop offset="0" stop-color="#fff"/><stop offset="0" stop-color="#f6fffc"/><stop offset="0" stop-color="#c8ffee"/><stop offset="0" stop-color="#9dffe1"/><stop offset="0" stop-color="#77ffd5"/><stop offset="0" stop-color="#57ffcb"/><stop offset="0" stop-color="#3bffc3"/><stop offset="0" stop-color="#25ffbc"/><stop offset="0" stop-color="#14ffb7"/><stop offset="0" stop-color="#09ffb4"/><stop offset="0" stop-color="#02ffb2"/><stop offset="0" stop-color="#00ffb1"/><stop offset="0.22" stop-color="#00abb0"/><stop offset="0.55" stop-color="#0f0aff"/><stop offset="0.81" stop-color="#6000ff"/></linearGradient><linearGradient id="무제_그라디언트_396" x1="-1113.41" y1="-2799.42" x2="-1065.8" y2="-2799.42" gradientTransform="matrix(0.8, 0.6, -0.6, 0.8, -176.94, 3072.4)" gradientUnits="userSpaceOnUse"><stop offset="0" stop-color="#fff"/><stop offset="0.53" stop-color="#8a2cff"/><stop offset="0.7" stop-color="#6e51f6"/><stop offset="0.94" stop-color="#408ce8"/><stop offset="0.97" stop-color="#5340e8"/></linearGradient><linearGradient id="무제_그라디언트_525-2" x1="681.91" y1="242.92" x2="720.4" y2="242.92" gradientTransform="matrix(1, 0, 0, 1, 0, 0)" xlink:href="#무제_그라디언트_525"/><linearGradient id="무제_그라디언트_434" x1="289.1" y1="330.63" x2="327.59" y2="330.63" gradientUnits="userSpaceOnUse"><stop offset="0" stop-color="#fff"/><stop offset="0.53" stop-color="#952bff"/><stop offset="0.63" stop-color="#7650f7"/><stop offset="0.77" stop-color="#4787ea"/><stop offset="0.94" stop-color="#408ce8"/><stop offset="0.97" stop-color="#5340e8"/></linearGradient><linearGradient id="무제_그라디언트_525-3" x1="-7155.37" y1="-3702.42" x2="-7106.4" y2="-3702.42" gradientTransform="translate(-4710.15 6622.37) rotate(100.04)" xlink:href="#무제_그라디언트_525"/><linearGradient id="무제_그라디언트_390" x1="291.53" y1="101" x2="330.02" y2="101" gradientUnits="userSpaceOnUse"><stop offset="0" stop-color="#fff"/><stop offset="0.53" stop-color="#8a2cff"/><stop offset="0.83" stop-color="#6539f0"/><stop offset="0.97" stop-color="#5340e8"/></linearGradient></defs><g id="레이어_2" data-name="레이어 2"><g id="레이어_1-2" data-name="레이어 1"><path class="cls-1" d="M163.9,108.61Q88.44,278.29,1.63,443.92l898.28.27c-54.82-106.48-108.8-218.12-162.1-334.06C555.33,119.5,363.71,118.64,163.9,108.61Z"/><path class="cls-2" d="M633.51,126.23l24.69-1.55-3.61-12.79a58.11,58.11,0,0,0-10.86.43l-13.12.36C630.77,112.85,632.75,123,633.51,126.23Z"/><path class="cls-2" d="M186.16,121.15s17.87,1.33,23.1,1.57c.59,0,1.6-.35,1.76-.79,1.33-3.64,2.5-7.33,3.84-11.37-7.91-.31-15.45-.63-23-.85a2.19,2.19,0,0,0-1.59,1.1,12.79,12.79,0,0,0-.61,1.39Z"/><path class="cls-2" d="M897.49,440.15c-2.62-5.46-5.19-10.79-7.77-16q-1.26-2.6-2.54-5.16a1.5,1.5,0,0,0-.37-.44,3.38,3.38,0,0,0-.95-.57,4.05,4.05,0,0,0-1.42-.33c-2.78,0-5.57,0-8.36-.05q-12.44-.07-24.87-.09h-2.48a5.22,5.22,0,0,0,.13,1l3.69,8.47c2.46,5.65,4.92,11.29,7.46,16.9a1.22,1.22,0,0,0,.16.26,3.56,3.56,0,0,0,2.24,1.06h.08c3.13.06,6.25.07,9.37.07h28Z"/><path class="cls-2" d="M236.27,267.86c-1.6,5.34-3.16,10.55-4.79,16l29.8,7c1-.47,4.62-16.86,4.62-16.86L238,268l-1.63-.35Z"/><path class="cls-2" d="M204.23,257.07l26.57,6,3,.67,0,0,.12,0,.34-1.28,4.13-15.68-5.28-1-23.68-4.82Z"/><path class="cls-2" d="M338.7,241.68c-.77-.32-28.09-4.44-28.09-4.44l-3.39,19.48s21.88,3.79,29.07,4.95C337.13,254.87,337.93,247.86,338.7,241.68Z"/><path class="cls-2" d="M299.2,281.08c-5.8-1.28-17.64-3.82-29.87-6.42,0,0-3.87,16.42-3.29,17.26l30.07,6.45C297.12,292.49,298.87,287.13,299.2,281.08Z"/><path class="cls-2" d="M210.48,237.53c.73.23,1.26.44,1.81.55,6.27,1.31,27,5.36,27,5.36l4.52-17.18-7.27-1.2c-6.92-1.37-13.87-2.58-21-3.89Z"/><path class="cls-2" d="M216.5,218l24.38,4.48,3.75.62s3.86-15.33,4.33-17.29c-.93-.14-24.48-3.72-27.72-4.19Z"/><polygon class="cls-2" points="303.32 259.29 273.9 253.62 270.04 271.43 300.21 277.86 303.32 259.29"/><polygon class="cls-2" points="242.5 244.07 271.26 249.69 275.3 231.43 247.02 226.79 242.5 244.07"/><polygon class="cls-2" points="307.11 236.66 278.61 231.98 274.62 250.35 303.86 256.07 307.11 236.66"/><path class="cls-2" d="M93.8,418a8.29,8.29,0,0,0-1.13-.22c-11.73-.1-23.46-.17-35.2-.33-1.5,0-2,.72-2.48,1.87-3.28,7.55-6.6,15.08-9.9,22.62-.42.95-.78,1.93-1.15,2.88.35.18.49.31.63.31,12.4,0,24.8.07,37.19,0,.68,0,1.66-1,2-1.69,1.71-4.07,3.23-8.2,4.85-12.3C90.28,426.8,92,422.5,93.8,418Z"/><path class="cls-2" d="M842.75,417.54c-11.23,0-22.46.12-33.69.21-.65,0-1.29.1-2.07.17a12.88,12.88,0,0,0,.31,1.31c3.13,8,6.32,15.91,9.37,23.91a2.77,2.77,0,0,0,3.09,2.09c11.57-.07,23.13,0,34.69-.05.71,0,1.42-.1,2.4-.18-4-9-7.75-17.76-11.68-26.45C844.9,418,843.58,417.54,842.75,417.54Z"/><path class="cls-2" d="M52,417.55c-12.38,0-24.45,0-36.51.07a3.06,3.06,0,0,0-2.09,1.6C11,424,8.7,428.78,6.4,433.58,4.61,437.3,2.85,441,1,444.92a7.06,7.06,0,0,0,1.16.25c12.15,0,24.31.05,36.46-.06a3.24,3.24,0,0,0,2.21-1.75c3.55-7.89,7-15.83,10.42-23.76C51.52,419,51.71,418.3,52,417.55Z"/><path class="cls-2" d="M800.85,417.78c-11.15.16-22.31.21-33.46.31-.8,0-1.59.11-2.58.18.25.79.4,1.33.59,1.86,2.74,7.59,5.56,15.15,8.17,22.78.64,1.86,1.55,2.33,3.4,2.32,11.41-.08,22.82,0,34.22,0,.81,0,1.61-.09,2.93-.16-3.51-8.69-6.89-16.92-10.15-25.19A2.78,2.78,0,0,0,800.85,417.78Z"/><path class="cls-2" d="M135.79,417.82c-12.56,0-24.79,0-37,.05A2.2,2.2,0,0,0,97.15,419c-3.53,8.52-7,17.07-10.62,26,1,.1,1.44.19,1.92.19,12,0,24,0,36,.05,1.64,0,2.08-.81,2.54-2.1,2.72-7.68,5.51-15.33,8.27-23C135.41,419.55,135.51,418.93,135.79,417.82Z"/><path class="cls-2" d="M759.12,418.27q-7.36.19-14.72.22c-7,0-14.11,0-21.59,0,2.85,8.71,5.49,16.57,8,24.48.55,1.76,1.37,2.26,3.15,2.25,11.47-.08,22.94,0,34.42,0,.77,0,1.54-.08,2.67-.15-3.2-8.67-6.28-16.91-9.26-25.18C761.24,418.45,760.42,418.23,759.12,418.27Z"/><path class="cls-2" d="M177.64,418.92c-12.53-.22-24.59-.46-36.65-.56a3.09,3.09,0,0,0-2.14,1.75c-2.26,5.81-4.37,11.67-6.5,17.53-.87,2.38-1.66,4.8-2.48,7.16.39.2.54.33.68.33,12.39,0,24.79.07,37.18,0,.63,0,1.59-1,1.84-1.73,2-6,3.93-12,5.88-18C176.12,423.34,176.83,421.31,177.64,418.92Z"/><path class="cls-2" d="M717.25,419.06c-11.24.11-22.46.33-33.69.54-.78,0-1.55.14-2.46.22,2.51,8.62,4.93,16.9,7.35,25.22H728.1c-2.87-8.54-5.56-16.67-8.41-24.73C719.47,419.67,718.08,419.05,717.25,419.06Z"/><path class="cls-2" d="M219.34,419.67c-12.44-.22-24.67-.48-36.9-.6-.62,0-1.57,1-1.83,1.78-1.55,4.3-2.94,8.65-4.37,13-1.18,3.61-2.34,7.24-3.59,11.13a13.48,13.48,0,0,0,1.4.2c12.15,0,24.31,0,36.46.05,1.58,0,1.93-.78,2.27-2,2.07-7.28,4.17-14.54,6.25-21.82C219.17,420.92,219.22,420.37,219.34,419.67Z"/><path class="cls-2" d="M675.18,419.83c-11.15.29-22.31.45-33.46.67-.65,0-1.29.09-2.17.16,2,8.21,3.94,16.25,5.92,24.4H685c-2.32-7.9-4.59-15.44-6.7-23C677.81,420.23,677,419.78,675.18,419.83Z"/><path class="cls-2" d="M224.12,419.89a1.87,1.87,0,0,0-1.4,1c-2.39,7.93-4.71,15.89-7.13,24.17h39.54c2-8.16,3.92-16.21,5.92-24.47C248.57,420.34,236.35,420.08,224.12,419.89Z"/><path class="cls-2" d="M302.17,421.38c-12-.26-24-.49-36-.8-1.49,0-1.8.78-2.08,1.9-1.2,4.68-2.49,9.33-3.64,14-.69,2.79-1.2,5.62-1.81,8.54h39.45L303,421.64A3.38,3.38,0,0,0,302.17,421.38Z"/><path class="cls-2" d="M636.57,422.75c-.4-1.68-1.13-2.22-2.9-2.17-11.07.31-22.15.48-33.22.71-.89,0-1.77.09-2.82.15,1.66,8,3.26,15.82,4.88,23.65h39.37c-.14-1-.19-1.62-.34-2.25C639.88,436.14,638.16,429.46,636.57,422.75Z"/><path class="cls-2" d="M870.52,389q-13.47.25-26.95.46c-2.47,0-4.94,0-7.72,0,.4,1.06.61,1.76.91,2.41,3.07,6.74,6.2,13.44,9.19,20.21a3.12,3.12,0,0,0,3.35,2.17c11.06-.05,22.13,0,33.19.07.7,0,1.4-.1,2.24-.16a9.32,9.32,0,0,0-.36-1.16c-3.69-7.54-7.43-15.06-11-22.63C872.66,389,871.72,389,870.52,389Z"/><path class="cls-2" d="M52.21,414.13a3.28,3.28,0,0,0,2.23-1.76c3.26-6.92,6.4-13.9,9.57-20.86.25-.56.38-1.17.81-2.5-12.13,0-23.78,0-35.42.07a3.1,3.1,0,0,0-2,1.63c-2.45,4.72-4.78,9.51-7.13,14.29-1.45,3-2.88,5.93-4.47,9.21C28.25,414.21,40.23,414.24,52.21,414.13Z"/><path class="cls-2" d="M555.93,421.83c1.25,8,2.42,15.59,3.61,23.25h39.6q-2.57-12.21-4.88-23.25Z"/><path class="cls-2" d="M306.33,421.85,301.51,445h39.58c1.19-7.67,2.36-15.21,3.59-23.19Z"/><path class="cls-2" d="M807.53,414.46c11.13-.14,22.27-.17,33.41-.25.7,0,1.39-.12,2.33-.21-3.62-7.87-7.07-15.42-10.61-22.93a2.5,2.5,0,0,0-1.83-1.22c-11.71.3-23.41.68-35.53,1.06,3.18,7.5,6.21,14.51,9.08,21.57C805,414.09,805.89,414.48,807.53,414.46Z"/><path class="cls-2" d="M67.86,391.3c-1.61,3.19-3.07,6.45-4.56,9.7-1.95,4.26-3.88,8.54-5.81,12.8.41.21.55.35.69.35,12,.1,23.94.2,35.91.23a2.19,2.19,0,0,0,1.66-1c3.19-7.29,6.29-14.62,9.61-22.4-12.14-.38-23.85-.78-35.56-1.06A2.78,2.78,0,0,0,67.86,391.3Z"/><path class="cls-2" d="M552.93,424.25c-.24-1.84-.95-2.26-2.71-2.23-11.31.24-22.63.37-34,.54-.57,0-1.14.1-1.89.16.71,7.51,1.42,14.89,2.12,22.35h39.22a17.8,17.8,0,0,0,0-2.32C554.79,436.58,553.75,430.43,552.93,424.25Z"/><path class="cls-2" d="M349.37,422.12c-.5,0-1.34.85-1.47,1.43-.59,2.59-1,5.21-1.41,7.84-.66,4.5-1.23,9-1.85,13.63h39.5q1-11.24,2-22c-.26-.19-.32-.28-.39-.28C373.65,422.49,361.51,422.26,349.37,422.12Z"/><path class="cls-2" d="M509.53,422.68c-12.13-.08-24.26-.06-36.32-.06V445h39.91c-.65-7.14-1.26-14.07-2-21A2.15,2.15,0,0,0,509.53,422.68Z"/><path class="cls-2" d="M389.48,424.48c-.49,3.45-.78,6.93-1.09,10.4s-.55,6.7-.82,10.15H427.4V422.62c-12,0-24.16,0-36.29.08C390.54,422.71,389.57,423.8,389.48,424.48Z"/><path class="cls-2" d="M430.89,445h38.82v-21.9H430.89Z"/><path class="cls-2" d="M765.71,415c11.4-.24,22.79-.34,34.19-.5.47,0,1-.08,1.54-.13a7.82,7.82,0,0,0-.26-1.06c-3-7-5.91-13.93-9-20.83a3.11,3.11,0,0,0-2.45-1.26c-7.65.21-15.29.55-22.94.89-4,.17-7.93.39-12.17.61.34.95.59,1.71.89,2.46,2.35,5.86,4.77,11.7,7,17.6C763.15,414.38,763.89,415,765.71,415Z"/><path class="cls-2" d="M135.84,414.86a2.9,2.9,0,0,0,2-1.63c2.34-5.6,4.55-11.26,6.8-16.9l1.36-3.47a11.46,11.46,0,0,0-1.33-.24c-11.4-.5-22.8-1-34.21-1.39a3.17,3.17,0,0,0-2.22,1.68c-2.21,4.85-4.25,9.77-6.33,14.67-.94,2.19-1.85,4.4-3.09,7.35C111.54,414.93,123.69,415,135.84,414.86Z"/><path class="cls-2" d="M32.92,385.67c8.82.18,17.65.31,26.47.58,7,.22,6.94.29,9.89-6.1C71.64,375,74,369.93,76.57,364.5,65,364,53.67,363.42,42.38,363a3,3,0,0,0-2.09,1.55c-1.77,3.3-3.37,6.69-5,10-1.76,3.56-3.51,7.12-5.45,11.08C31.13,385.67,32,385.65,32.92,385.67Z"/><path class="cls-2" d="M723.09,415.45c12.13.08,24.26.06,37,.06-2.92-7.34-5.56-13.86-8.08-20.43-.63-1.63-1.41-2.28-3.24-2.16-7.88.5-15.77.82-23.66,1.23-3.55.18-7.1.4-11,.62,2.43,6.7,4.68,13,7.06,19.32A2.55,2.55,0,0,0,723.09,415.45Z"/><path class="cls-2" d="M824.41,365.42c3.06,6.55,6.1,13.11,9.28,19.6a3.06,3.06,0,0,0,2.33,1.16c4.57,0,9.14-.17,13.72-.19,6.89-.05,13.78,0,21.38,0-3.92-7.91-7.39-15-11-22a2.26,2.26,0,0,0-1.71-1c-11.36.46-22.72,1-34.14,1.53A3.31,3.31,0,0,0,824.41,365.42Z"/><path class="cls-2" d="M186.48,394.89c-2.12-.14-4-.29-5.9-.39-8.23-.43-16.46-.79-24.68-1.3-6.36-.39-6.36-.48-8.74,5.52-2.11,5.31-4.19,10.63-6.47,16.42H179Z"/><path class="cls-2" d="M79.79,365.82c-3.28,6.7-6.42,13.47-9.77,20.61,12.12.39,23.76.79,35.4,1.06a2.93,2.93,0,0,0,2.06-1.54c2.3-4.89,4.45-9.85,6.63-14.79.52-1.17,1-2.36,1.63-3.84-2.52-.2-4.66-.4-6.79-.54-9-.62-17.93-1.25-26.89-1.79C81.3,364.94,80.05,365.28,79.79,365.82Z"/><path class="cls-2" d="M795.81,387.56c8.23-.36,16.46-.62,24.69-.86,3.21-.09,6.43,0,10,0-.43-1.15-.61-1.77-.88-2.35-2.75-5.87-5.56-11.72-8.22-17.63a2.6,2.6,0,0,0-3-1.78c-8.87.66-17.75,1.23-26.63,1.84-2.2.16-4.41.37-6.93.58,2.81,6.33,5.5,12.29,8.07,18.31A2.61,2.61,0,0,0,795.81,387.56Z"/><path class="cls-2" d="M682.08,416.46c11.31-.32,22.62-.54,33.93-.81a19.42,19.42,0,0,0,2.13-.29c-2.35-6.32-4.66-12.37-6.83-18.47a2.41,2.41,0,0,0-2.88-1.9c-6.72.46-13.45.79-20.18,1.17l-14.66.83c2,6,3.89,11.71,5.68,17.49A2.39,2.39,0,0,0,682.08,416.46Z"/><path class="cls-2" d="M220.87,415.46c2.06-6,4-12.11,6-18.15a2.71,2.71,0,0,0-.6-.28c-11.54-.65-23.08-1.27-34.62-2-1.42-.08-1.87.57-2.28,1.69-1.48,4.06-3,8.09-4.55,12.14-.79,2.14-1.54,4.29-2.42,6.73,12.59.28,24.8.56,37,.77A1.85,1.85,0,0,0,220.87,415.46Z"/><path class="cls-2" d="M118.63,369.34c-2.12,4.51-4.09,9.09-6.1,13.65-.66,1.5-1.26,3-2.07,5,1.37,0,2.34,0,3.3,0,9,.39,18.11.71,27.16,1.21,6.4.36,6.4.47,8.85-5.34,1.79-4.25,3.55-8.52,5.3-12.73-.39-.27-.51-.42-.65-.44-11.25-1-22.51-2-33.77-2.89C120,367.72,119,368.63,118.63,369.34Z"/><path class="cls-2" d="M755.48,389.43c10.88-.58,21.77-1,32.65-1.55a19,19,0,0,0,2-.32c-2.85-6.39-5.55-12.55-8.38-18.66a2.56,2.56,0,0,0-2-1.12c-7.55.53-15.09,1.17-22.62,1.83-3.78.33-7.55.74-11.59,1.14.35,1,.58,1.77.89,2.51,2,4.68,4,9.32,5.82,14.05A2.79,2.79,0,0,0,755.48,389.43Z"/><path class="cls-2" d="M824.87,340.76c-3.79.33-7.57.74-11.67,1.14,2.24,4.71,4.64,8.93,6.29,13.43,1.72,4.66,4.12,7.29,9.39,5.69a3,3,0,0,1,.74,0L858,359.43c-3.27-6.49-6.37-12.55-9.36-18.66a2.67,2.67,0,0,0-3.07-1.77C838.64,339.64,831.75,340.16,824.87,340.76Z"/><path class="cls-2" d="M78.49,360.46c3-6,5.85-12.11,8.83-18.31a9.22,9.22,0,0,0-1.59-.46c-10.36-.91-20.71-1.83-31.08-2.61a3.2,3.2,0,0,0-2.37,1.47c-1.42,2.44-2.59,5-3.85,7.55l-5.66,11.3c11.64.68,22.91,1.34,34.19,1.94A2,2,0,0,0,78.49,360.46Z"/><path class="cls-2" d="M640.85,417.2c9.72-.16,19.45-.43,29.17-.65,2.05-.05,4.09,0,6.58,0-2.15-6.41-4.12-12.39-6.22-18.32a2.34,2.34,0,0,0-1.88-1c-8.64.42-17.27.92-25.9,1.41l-9.33.58c1.69,5.84,3.24,11.42,5,16.93C638.46,416.75,640,417.21,640.85,417.2Z"/><path class="cls-2" d="M262.37,416.13c1.66-5.47,3.21-11,4.8-16.49a3.06,3.06,0,0,0-.8-.35c-11.56-.64-23.11-1.29-34.67-1.86a2.08,2.08,0,0,0-1.62,1c-2.05,5.88-4,11.79-6.05,17.93,12.48.3,24.62.6,36.76.83A2.06,2.06,0,0,0,262.37,416.13Z"/><path class="cls-2" d="M807.85,342.48c-3.73.26-7.46.65-11.18,1.06-7.09.78-14.19,1.61-21.56,2.45,2.45,5.43,4.85,10.54,7,15.74.76,1.81,1.64,2.48,3.67,2.3,7.79-.71,15.59-1.23,23.39-1.8,3.13-.23,6.26-.41,9.74-.63-3-6.34-5.88-12.34-8.86-18.26A2.77,2.77,0,0,0,807.85,342.48Z"/><path class="cls-2" d="M90.52,343.3c-2.94,5.95-5.79,11.94-8.68,18a3.16,3.16,0,0,0,.84.36c11.11.81,22.22,1.63,33.34,2.37a2.17,2.17,0,0,0,1.7-.95c2.61-5.56,5.11-11.16,7.83-17.16-11.38-1.19-22.44-2.36-33.51-3.46A1.92,1.92,0,0,0,90.52,343.3Z"/><path class="cls-2" d="M186.58,391.48a2.09,2.09,0,0,0,1.63-1c2.08-5.23,4-10.5,6.15-16-11.65-1.13-23.08-2.25-34.51-3.28a2.1,2.1,0,0,0-1.6,1.07c-2.46,5.64-4.83,11.32-7.26,17.09.39.24.52.39.66.4C163.29,390.32,174.93,390.94,186.58,391.48Z"/><path class="cls-2" d="M749.69,389.54c-2.48-5.89-4.81-11.3-7-16.78a2.22,2.22,0,0,0-2.79-1.61c-4.8.54-9.61.92-14.41,1.38-6.37.63-12.73,1.28-19.29,1.94l6.56,17Z"/><path class="cls-2" d="M598.72,418q9.22-.24,18.47-.33c5.82-.05,11.64,0,17.7,0-.19-1.14-.25-1.79-.42-2.4-1.3-4.56-2.72-9.09-3.89-13.68-.47-1.87-1.39-2.25-3.15-2.15-10.72.63-21.44,1.16-32.16,1.73-.79,0-1.58.18-2.45.28,1.21,5.14,2.4,10,3.46,14.85C596.6,417.81,597.36,418.07,598.72,418Z"/><path class="cls-2" d="M307.81,401.49,294,400.74c-7.14-.4-14.28-.83-21.42-1.17-.69,0-1.9.31-2,.74-1.73,5.53-3.31,11.11-5.12,17.32H304Q305.79,410,307.81,401.49Z"/><path class="cls-2" d="M819.61,318.67c-5.42.66-10.83,1.42-16.64,2.19,2.72,5.59,5.28,10.72,7.7,15.91a2.59,2.59,0,0,0,3.05,1.74c8.44-.81,16.89-1.54,25.34-2.28,2.19-.19,4.39-.34,6.91-.54-3.13-6.17-6-12-9.06-17.68a3,3,0,0,0-2.43-.94C829.52,317.51,824.56,318.06,819.61,318.67Z"/><path class="cls-2" d="M87.59,338.45a2.63,2.63,0,0,0,2-1.23c2.66-5.27,5.19-10.61,7.79-16-.42-.29-.54-.45-.68-.46-10.33-1.26-20.65-2.55-31-3.68a3.14,3.14,0,0,0-2.33,1.51c-2.09,3.79-4,7.67-5.95,11.53-.88,1.75-1.74,3.52-2.63,5.33a4.06,4.06,0,0,0,.9.39C66.35,336.73,77,337.65,87.59,338.45Z"/><path class="cls-2" d="M128.29,348.1c-1.78,3.57-3.39,7.23-5,10.86-.8,1.76-1.55,3.53-2.37,5.4,11.63,1,22.89,2.08,34.17,3a2.55,2.55,0,0,0,2-1.14c2.22-4.92,4.3-9.9,6.49-15a8.69,8.69,0,0,0-1-.31c-10.72-1.43-21.43-2.89-32.16-4.21A2.79,2.79,0,0,0,128.29,348.1Z"/><path class="cls-2" d="M745.39,367.4c11.36-1,22.71-2,34.43-3-2.65-5.8-5.12-11.33-7.76-16.79-.27-.55-1.62-.91-2.41-.82-4.8.5-9.58,1.13-14.36,1.77-6,.8-12,1.65-18.29,2.51,2.26,5.35,4.39,10.47,6.64,15.55A2.12,2.12,0,0,0,745.39,367.4Z"/><path class="cls-2" d="M798.17,321.55c-2.56.18-5.11.6-7.66,1-8,1.19-16,2.42-24.41,3.68,2.47,5.4,4.78,10.54,7.22,15.6.23.48,1.35.81,2,.75,3.31-.27,6.61-.69,9.91-1.05l22.92-2.5c-2.76-5.74-5.28-11.07-7.93-16.33A2.64,2.64,0,0,0,798.17,321.55Z"/><path class="cls-2" d="M100.65,322.21c-2.8,5.44-5.39,11-8,16.49.3.19.37.26.45.27,10.89,1.26,21.78,2.54,32.68,3.71.54.06,1.43-.67,1.72-1.24,1.52-3.05,2.92-6.15,4.33-9.25.88-1.92,1.7-3.86,2.6-5.92-2.33-.38-4.3-.72-6.26-1-8.22-1.23-16.43-2.49-24.65-3.64C102.55,321.49,100.94,321.66,100.65,322.21Z"/><path class="cls-2" d="M464.9,274.57H435.61v20.24H464.9Z"/><path class="cls-2" d="M593.53,418.26c-1.47-5.91-2.81-11.28-4.17-16.78l-36.8,1.74c1,5.25,1.89,10.33,2.76,15Z"/><path class="cls-2" d="M464.51,250.11H436V271h28.49Z"/><path class="cls-2" d="M228.45,392.75c1.74-4.65,3.37-9.35,5.14-14.33-2.12-.25-4-.49-5.87-.68-9.26-.92-18.52-1.85-27.79-2.71-.78-.07-2.13.2-2.33.67-2.17,5.27-4.16,10.61-6.24,16,12.06.7,23.75,1.4,35.45,2A2.05,2.05,0,0,0,228.45,392.75Z"/><path class="cls-2" d="M348,403.45a8.74,8.74,0,0,0-1.11-.29c-11.46-.49-22.93-1-34.39-1.4a2.38,2.38,0,0,0-1.7,1.46c-1.26,4.73-2.36,9.5-3.71,15h38.22Z"/><path class="cls-2" d="M674.4,393.61c7.88-.5,15.77-.88,23.65-1.3l11.19-.62c-2-5.12-3.87-9.87-5.56-14.71-.63-1.78-1.57-2.18-3.31-2-7.36.78-14.73,1.43-22.08,2.16-3.7.37-7.38.83-11.34,1.28,1.66,4.69,3.27,9,4.73,13.43A2.25,2.25,0,0,0,674.4,393.61Z"/><path class="cls-2" d="M495.74,248.56l-27.5,1.31v21.25l28.63-1.61C496.48,262.26,496.11,255.43,495.74,248.56Z"/><path class="cls-2" d="M403.76,269.54l28.71,1.57V249.87l-27.61-1.3C404.49,255.59,404.14,262.37,403.76,269.54Z"/><path class="cls-2" d="M96.9,317.41c.86.1,2.31-.31,2.63-.93,2.6-5,5-10.1,7.45-15.2-.4-.23-.6-.43-.82-.46-10-1.48-20.08-3-30.12-4.37a2,2,0,0,0-1.64.61c-2.86,5.4-5.63,10.85-8.59,16.62,3.64.39,6.85.69,10,1.09C82.87,315.64,89.88,316.61,96.9,317.41Z"/><path class="cls-2" d="M807.79,298.69c-4.67.68-9.32,1.46-14.27,2.24,2.39,5.06,4.69,9.75,6.81,14.51.77,1.71,1.62,2.27,3.58,2,6.25-.95,12.54-1.64,18.81-2.41,3.92-.47,7.84-.9,12-1.38-2.86-5.64-5.48-10.93-8.27-16.13a2.85,2.85,0,0,0-2.36-1C818.66,297.15,813.22,297.9,807.79,298.69Z"/><path class="cls-2" d="M497,272.78l-28.48,1.58v20.47L498.15,293C497.76,286,497.39,279.44,497,272.78Z"/><path class="cls-2" d="M432.07,274.52a1.64,1.64,0,0,0-.47-.22c-8.89-.52-17.78-1.06-26.67-1.48a2.09,2.09,0,0,0-1.45,1.39c-.39,6.12-.65,12.26-1,18.79l29.56,1.81Z"/><path class="cls-2" d="M464.17,225.43H436.44v21h27.73Z"/><path class="cls-2" d="M401.48,248.3,373.6,246c-.61,6.91-1.19,13.56-1.79,20.41l28.67,2.84C400.83,262,401.16,255.16,401.48,248.3Z"/><path class="cls-2" d="M528.81,266.42c-.61-6.91-1.19-13.56-1.8-20.37L499.1,248.3c.35,7,.69,13.79,1,21Z"/><path class="cls-2" d="M531.09,289.54c-.68-6.72-1.33-13.13-2-19.72l-28.77,2.7c.37,6.66.74,13.18,1.14,20.22Z"/><path class="cls-2" d="M400.28,272.53l-28.76-2.69c-.67,6.58-1.31,13-2,19.69l29.61,3.21C399.53,285.86,399.89,279.35,400.28,272.53Z"/><path class="cls-2" d="M467.81,225.29v21.24l27.77-1.2c-.33-7.26-.64-14.11-1-21.15Z"/><path class="cls-2" d="M405,245.34l27.87,1.18V225.29L406,224.19C405.67,231.29,405.36,238.15,405,245.34Z"/><path class="cls-2" d="M370.23,245.67l-28.14-3.37c-.85,6.7-1.67,13.1-2.53,19.91l28.86,3.89C369,259.05,369.63,252.45,370.23,245.67Z"/><path class="cls-2" d="M564.12,284.71c-.91-6.55-1.76-12.7-2.66-19.21l-29,3.89c.65,6.69,1.27,13.11,1.92,19.78Z"/><path class="cls-2" d="M368.08,269.41l-28.91-3.93c-.89,6.41-1.74,12.56-2.67,19.24l29.75,4.45C366.87,282.38,367.47,275.91,368.08,269.41Z"/><path class="cls-2" d="M561,262.18l-2.49-19.86-28.12,3.36c.58,6.85,1.14,13.49,1.73,20.42Z"/><path class="cls-2" d="M160.05,367.85c11.74,1.12,23.14,2.22,34.54,3.27a1.67,1.67,0,0,0,1.38-.63c1.9-4.67,3.71-9.37,5.63-14.29L167,351.38Z"/><path class="cls-2" d="M706.54,371.06c4-.31,7.94-.7,11.91-1.08l22.1-2.14-7-16.44L699,356.21c1.92,4.93,3.72,9.63,5.65,14.28C704.83,370.89,705.91,371.11,706.54,371.06Z"/><path class="cls-2" d="M497.91,224c.35,7.15.68,14,1,21.13l27.78-2.44c-.57-7.07-1.1-13.75-1.64-20.57Z"/><path class="cls-2" d="M402.69,223.94l-27.17-1.85c-.54,6.95-1.06,13.62-1.6,20.56l27.77,2.42C402,237.8,402.36,231,402.69,223.94Z"/><path class="cls-2" d="M137.55,327.73c-2.45,5.06-4.7,10.22-7.12,15.6,4.17.51,8,1,11.87,1.46,6.84.89,13.67,1.81,20.5,2.69,1.12.15,2.2.47,2.83-1.13,1.79-4.55,3.76-9,5.79-13.84l-7-1.18c-8.1-1.4-16.19-2.83-24.3-4.16C139.29,327,137.8,327.23,137.55,327.73Z"/><path class="cls-2" d="M465.34,298.18H435.17v18.48h30.17Z"/><path class="cls-2" d="M758.75,327.46c-1.23.19-2.46.37-3.69.58l-25.87,4.48c1.94,4.63,3.83,8.88,5.49,13.21.64,1.69,1.52,2,3.17,1.79,7-1,14-1.88,21-2.82l11.25-1.51-5.63-12.58C762.77,326.82,762.76,326.82,758.75,327.46Z"/><path class="cls-2" d="M102.74,317.79c.3.23.42.39.56.41q15.66,2.4,31.32,4.74a1.88,1.88,0,0,0,1.61-.67c2.27-4.86,4.44-9.77,6.77-15l-32.4-5.83C107.9,307.09,105.31,312.46,102.74,317.79Z"/><path class="cls-2" d="M757.66,307.27c2.3,5.17,4.38,10,6.63,14.66a2.79,2.79,0,0,0,2.36.87c7.49-1,15-2.21,22.43-3.35,2.92-.44,5.83-.91,8.94-1.39l-8-16.59Z"/><path class="cls-2" d="M463.69,201.34H436.8v20.58h26.89Z"/><path class="cls-2" d="M597.14,278.65c-1.17-6.48-2.25-12.49-3.35-18.6l-29.08,5c.91,6.46,1.78,12.68,2.68,19.09Z"/><path class="cls-2" d="M593.18,256.85c-1.07-6.41-2.11-12.6-3.2-19.08l-28.2,4.11c.87,6.62,1.71,13.09,2.58,19.8Z"/><path class="cls-2" d="M558.11,239.08c-.83-6.91-1.6-13.4-2.39-20l-27.32,2.74c.56,6.8,1.11,13.47,1.68,20.52Z"/><path class="cls-2" d="M516.32,419.3c10.89-.19,21.78-.27,32.67-.39.89,0,1.78,0,3,0-1-5.4-1.86-10.42-2.79-15.61l-36.8,1.23c.48,4.33,1.06,8.41,1.34,12.52C513.83,419,514.58,419.33,516.32,419.3Z"/><path class="cls-2" d="M351.42,403.42c-.92,5.17-1.8,10.13-2.77,15.57h38c.52-4.72,1-9.44,1.57-14.32Z"/><path class="cls-2" d="M106.74,297.5c.72.11,2-.19,2.25-.69,2.49-4.86,4.82-9.79,7.39-15.1-10.28-1.74-20-3.42-29.76-5a2.44,2.44,0,0,0-2.07.66c-2.76,5.1-5.38,10.27-8.14,15.62l5.19.8C90,295,98.35,296.32,106.74,297.5Z"/><path class="cls-2" d="M813.74,276.73c-5.1.75-10.18,1.62-15.25,2.5-4.63.8-9.23,1.67-14.17,2.57,2.53,5.26,4.86,10.21,7.34,15.08.23.46,1.38.73,2.05.64,3.3-.41,6.57-1,9.86-1.49,6.8-1,13.6-2,20.67-3.06-2.74-5.34-5.3-10.45-8-15.48C815.9,276.94,814.53,276.62,813.74,276.73Z"/><path class="cls-2" d="M498.32,296.41,469,298.11v18.64l30.52-1.9C499.11,308.37,498.71,302.38,498.32,296.41Z"/><path class="cls-2" d="M431.69,298.1l-29.44-1.69c-.37,6.12-.74,12.12-1.12,18.46l30.56,1.87Z"/><path class="cls-2" d="M630.28,271.92,626,254l-28.94,5.47c1.13,6.33,2.2,12.27,3.33,18.58Z"/><path class="cls-2" d="M398.94,296.12l-29.8-3.2c-.67,6-1.31,11.87-2,18.06l30.63,3.55C398.17,308.24,398.56,302.18,398.94,296.12Z"/><path class="cls-2" d="M533.33,311c-.65-6.18-1.27-12-1.91-18.06l-29.77,3.21c.41,6.2.79,12.14,1.19,18.41Z"/><path class="cls-2" d="M467.31,201.18v20.7l27.13-1c-.32-7.12-.62-13.73-.93-20.49Z"/><path class="cls-2" d="M365.89,292.47,336,288c-.93,5.91-1.83,11.63-2.79,17.75l30.71,4.74C364.58,304.22,365.23,298.39,365.89,292.47Z"/><path class="cls-2" d="M559.11,218.68c.75,6.7,1.48,13.19,2.25,19.94l28.07-4.1c-1-6.48-1.93-12.69-2.92-19.2Z"/><path class="cls-2" d="M567.34,305.73c-1-6.12-1.84-11.83-2.76-17.75l-29.86,4.5c.68,6,1.34,11.87,2,18Z"/><path class="cls-2" d="M596.45,256.21l28.91-5.44c-1.3-6.13-2.56-12.1-3.86-18.19l-28.29,4.63C594.3,243.64,595.36,249.83,596.45,256.21Z"/><path class="cls-2" d="M496.81,200.21c.32,6.89.64,13.56,1,20.48l27.07-2c-.52-6.84-1-13.4-1.54-20.1Z"/><path class="cls-2" d="M601.36,299.08c-1.23-5.94-2.38-11.44-3.57-17.16l-29.9,5.48c1,6.07,1.88,11.84,2.82,17.73Z"/><path class="cls-2" d="M332.69,287.39,303.19,282a.89.89,0,0,1-.31-.06c-1.19,5.82-2.33,11.39-3.52,17.23l30.59,6Z"/><path class="cls-2" d="M509,404.59l-36.43.75v14.08h38C510.07,414.39,509.55,409.53,509,404.59Z"/><path class="cls-2" d="M119.19,283.6c-2.41,4.82-4.71,9.69-7.13,14.74,10.45,1.92,20.49,3.79,30.55,5.55a2.53,2.53,0,0,0,2.19-.8c2.17-4.65,4.16-9.38,6.32-14.34-10.26-2.06-20.24-4.09-30.24-6A2,2,0,0,0,119.19,283.6Z"/><path class="cls-2" d="M629.37,253.4c1.37,6,2.7,11.83,4,17.76l30-6.56c-1.66-6-3.2-11.45-4.78-17.12Z"/><path class="cls-2" d="M721.74,314.6c1.76,4.26,3.55,8.19,5,12.24.76,2.15,1.92,2.43,3.9,2.07,6.78-1.24,13.58-2.34,20.37-3.5,3.39-.58,6.77-1.18,10.34-1.8-2.44-5.44-4.71-10.49-7-15.64Z"/><path class="cls-2" d="M779.18,282.84c-4,.69-8,1.51-12,2.31-5.82,1.18-11.63,2.38-17.7,3.63,2.18,5,4.21,9.69,6.37,14.35a2.29,2.29,0,0,0,2,.77c10.13-1.78,20.25-3.65,30.71-5.56-2.46-5.11-4.74-10-7.19-14.8C781.12,283.05,779.88,282.73,779.18,282.84Z"/><path class="cls-2" d="M272.57,382.12,237,378.76,231.62,394l36.68,2.08C269.76,391.3,271.13,386.8,272.57,382.12Z"/><path class="cls-2" d="M139.3,323.68c3.37.56,6.39,1.05,9.4,1.57,7.21,1.23,14.42,2.52,21.64,3.65.92.15,2.56-.23,2.85-.84,2-4.29,3.73-8.7,5.7-13.45L146.33,308Z"/><path class="cls-2" d="M391.46,406.28c-.58,4.25-1,8.53-1.48,13h38.08V404.77c-11.69,0-23.33,0-35,.06A2.29,2.29,0,0,0,391.46,406.28Z"/><path class="cls-2" d="M468.89,405.57H431.65v14h37.24Z"/><path class="cls-2" d="M555.38,215.72c-.72-6.7-1.4-13.08-2.09-19.55l-26.72,2.2c.55,6.73,1.08,13.27,1.63,20Z"/><path class="cls-2" d="M668.92,393.91c-1.75-4.9-3.38-9.59-5.17-14.21-.17-.45-1.35-.77-2-.72-3.81.27-7.61.66-11.41,1L628,382.14c1.45,4.71,2.84,9.2,4.28,13.87Z"/><path class="cls-2" d="M373.91,198.35l-26.62-2.17c-.73,6.55-1.43,12.82-2.18,19.57,5.74.55,27.35,2.56,27.35,2.56S373.64,202.5,373.91,198.35Z"/><path class="cls-2" d="M592.72,233.93l28.09-4.58c-1.19-6.18-2.33-12.17-3.53-18.41l-27.52,3.95C590.76,221.33,591.71,227.46,592.72,233.93Z"/><path class="cls-2" d="M624.77,232c1.36,6.31,2.62,12.2,3.91,18.17l29.11-5.95c-1.51-5.85-2.95-11.46-4.46-17.3Z"/><path class="cls-2" d="M635.17,291.78c-1.42-5.68-2.78-11.12-4.16-16.62l-29.92,6.15c1.18,5.68,2.32,11.22,3.53,17.05Z"/><path class="cls-2" d="M147.72,304.88l32.4,6.6,6-14.9-31.73-7.12C152.15,294.69,150,299.7,147.72,304.88Z"/><path class="cls-2" d="M714.46,296.59c2.07,5.11,4,9.93,6,14.88L753,304.86c-2.35-5.29-4.57-10.27-6.86-15.4Z"/><path class="cls-2" d="M669.15,283.82c-1.68-5.55-3.25-10.76-4.86-16.07l-30.08,6.66c1.44,5.61,2.82,11,4.25,16.6Z"/><path class="cls-2" d="M782.39,277.61c.25.51,1.5.84,2.2.74,3.46-.51,6.88-1.21,10.32-1.81,6.27-1.09,12.55-2.16,19.19-3.3L806,257.45l-30.59,5.69C777.82,268.2,780,273,782.39,277.61Z"/><path class="cls-2" d="M168.46,348.24c11.23,1.59,22.1,3.15,33,4.62a2.26,2.26,0,0,0,1.87-1c1.7-4.15,3.24-8.37,4.94-12.85l-33.44-5.89C172.68,338.21,170.6,343.14,168.46,348.24Z"/><path class="cls-2" d="M699.72,352.86c5.67-.88,11.36-1.61,17-2.42,5.06-.71,10.12-1.45,15.47-2.22-2.07-4.88-4-9.47-6-14a2.31,2.31,0,0,0-2-.73c-4.11.61-8.21,1.33-12.3,2.06-6.44,1.16-12.87,2.36-19.55,3.58,1.6,4.22,3.16,8.15,4.56,12.14C697.48,352.76,698.22,353.09,699.72,352.86Z"/><path class="cls-2" d="M118.32,277.48c2.28-4.61,4.43-9.28,6.82-14.36-7.73-1.42-15.16-2.8-22.58-4.15-2.54-.46-5.62-1.92-7.47-1s-2.78,4.28-4,6.6c-1.51,2.82-2.94,5.69-4.45,8.64,10.2,1.8,20,3.55,29.81,5.21A2.29,2.29,0,0,0,118.32,277.48Z"/><path class="cls-2" d="M770.15,264.3c-4.82.9-9.62,1.91-14.41,2.92s-9.34,2-14.3,3.08c2.33,5.36,4.48,10.34,6.65,15.34l31.39-6.29c-2.38-5-4.61-9.81-7-14.53C772.23,264.36,770.89,264.16,770.15,264.3Z"/><path class="cls-2" d="M556.67,195.9c.68,6.49,1.34,12.81,2,19.47L586,212c-.88-6.36-1.74-12.49-2.61-18.77Z"/><path class="cls-2" d="M128,265.11c-2.31,4.6-4.48,9.26-6.86,14.23,8.6,1.74,16.82,3.38,25,5.06,6.31,1.29,6.31,1.32,8.94-4.69,1-2.2,1.91-4.42,2.85-6.64.37-.87.69-1.75,1.12-2.85-10-2.08-19.58-4.1-29.19-6A2.26,2.26,0,0,0,128,265.11Z"/><path class="cls-2" d="M344,195.91l-26.7-2.64c-.88,6.29-1.73,12.42-2.62,18.81l27.13,3.32C342.58,208.71,343.29,202.39,344,195.91Z"/><path class="cls-2" d="M661.92,246.85c1.63,5.83,3.17,11.31,4.76,17l29.73-6.72c-1.83-5.61-3.53-10.88-5.28-16.25Z"/><path class="cls-2" d="M668.42,374.93c8.58-.92,17.19-1.69,25.78-2.53,2.36-.23,4.7-.55,7.23-.85-1.76-4.52-3.48-8.66-5-12.87-.57-1.63-1.42-1.94-3-1.69-4.59.74-9.19,1.38-13.79,2.05L661,361.73c1.35,3.8,2.75,7.34,3.82,11C665.43,374.75,666.46,375.14,668.42,374.93Z"/><path class="cls-2" d="M239.51,361.71l-10.22-1.48c-7.41-1.08-14.81-2.2-22.22-3.17-.82-.11-2.27.37-2.53,1-1.87,4.35-3.51,8.79-5.39,13.62l35.63,3.44C236.39,370.54,237.93,366.2,239.51,361.71Z"/><path class="cls-2" d="M155.87,286.36l31.51,7.07,5.73-15.3-30.74-7.05C160.13,276.33,158,281.28,155.87,286.36Z"/><path class="cls-2" d="M707.49,278.14l5.76,15.29,31.53-7.09c-2.23-5.22-4.35-10.16-6.54-15.27Z"/><path class="cls-2" d="M646.42,206.66c-3.38.4-6.75,1-10.11,1.49l-15.72,2.39c1.2,6.16,2.34,12.06,3.53,18.23l28.35-5.06c-1.33-5.62-2.54-11-3.92-16.22C648.43,207,647.11,206.58,646.42,206.66Z"/><path class="cls-2" d="M190.64,294.21l31.56,7.23c1.73-5.25,3.35-10.17,5-15.28l-30.8-7.2Z"/><path class="cls-2" d="M673.37,286.18l5.06,15.27L710,294.2,704.15,279Z"/><path class="cls-2" d="M197.61,275.79,228.3,283c1.59-5.34,3.15-10.54,4.77-16l-29.93-6.83C201.24,265.53,199.48,270.51,197.61,275.79Z"/><path class="cls-2" d="M656.57,226.39c1.51,5.86,2.94,11.39,4.46,17.26l29.15-6c-1.74-5.69-3.38-11-5-16.44Z"/><path class="cls-2" d="M667.53,267c1.66,5.53,3.21,10.67,4.79,16L703,275.79c-1.88-5.3-3.65-10.27-5.5-15.5Z"/><path class="cls-2" d="M495.82,177.3c.29,6.57.58,12.86.88,19.5l26.38-1.48c-.48-6.63-.94-12.82-1.41-19.23Z"/><path class="cls-2" d="M675.2,302.26c-1.78-5.34-3.43-10.27-5.08-15.23l-30.8,7.18c1.42,5.2,2.78,10.13,4.17,15.2Z"/><path class="cls-2" d="M261.29,294.19,230.47,287c-1.71,5.16-3.33,10.09-5,15.24l31.71,7.12C258.57,304.19,259.9,299.31,261.29,294.19Z"/><path class="cls-2" d="M377.56,195.35l26.35,1.43c.3-6.71.58-13.11.86-19.5l-25.83-1.19C378.47,182.66,378,188.86,377.56,195.35Z"/><path class="cls-2" d="M589.27,211.56l27.37-3.9c-1.14-6.2-2.21-12-3.29-17.95l-26.71,3.11C587.53,199.17,588.38,205.23,589.27,211.56Z"/><path class="cls-2" d="M720.85,321.1c-2.36-5.74-2.37-5.8-8.52-4.56-8.71,1.77-17.39,3.65-26.42,5.55l5.3,13.87,33-5.95a4.17,4.17,0,0,0-.09-.83Q722.51,325.13,720.85,321.1Z"/><path class="cls-2" d="M709.51,297.78c-4.41.84-8.78,1.85-13.15,2.87-5.55,1.29-11.1,2.64-16.79,4,1.8,4.93,3.49,9.6,5.23,14.37l32.28-6.88c-1.87-4.71-3.53-9.06-5.37-13.33A2.54,2.54,0,0,0,709.51,297.78Z"/><path class="cls-2" d="M183.54,312.16l32.32,6.77c1.75-4.83,3.43-9.48,5.19-14.36l-31.61-7.25C187.41,302.42,185.5,307.22,183.54,312.16Z"/><path class="cls-2" d="M181.71,316.57c-1.91,4.33-3.66,8.71-5.59,13.37l33.33,6,5.23-13.86c-10.62-2.22-20.85-4.37-31.1-6.43A2.17,2.17,0,0,0,181.71,316.57Z"/><path class="cls-2" d="M640.29,310.23C638.82,305,637.45,300.07,636,295l-30.8,6.65c1.21,5.3,2.34,10.3,3.52,15.45Z"/><path class="cls-2" d="M169.3,254.25c-1.89,4.43-3.66,8.91-5.59,13.7l30.62,7c1.87-5.26,3.64-10.24,5.5-15.49-9.82-2.19-19.29-4.32-28.78-6.34A2.2,2.2,0,0,0,169.3,254.25Z"/><path class="cls-2" d="M728.61,253.27c-6.87,1.62-13.77,3.11-20.66,4.65l-7.18,1.6L706.31,275l30.59-7c-1.82-4.52-3.61-8.72-5.18-13C731.1,253.24,730.33,252.87,728.61,253.27Z"/><path class="cls-2" d="M295.38,301.66,264.59,295c-1.41,5.05-2.79,10-4.27,15.25l31.43,6.8Z"/><path class="cls-2" d="M694.46,240.11c1.84,5.62,3.55,10.8,5.32,16.19l29.81-6.64-5.89-15.49Z"/><path class="cls-2" d="M176.43,235.46c-1.8,4.62-3.5,9.28-5.32,14.2l29.78,6.63c1.79-5.47,3.46-10.59,5.27-16.14-9.58-1.93-18.84-3.8-28.13-5.59A1.9,1.9,0,0,0,176.43,235.46Z"/><path class="cls-2" d="M347.68,192.92l26.55,2.19c.4-5.67.68-11.05,1.21-16.4.22-2.28-.38-3-2.71-3.09-6.39-.21-12.77-.69-19.15-1.07-1.29-.08-2.57-.18-4-.28C348.93,180.61,348.32,186.67,347.68,192.92Z"/><path class="cls-2" d="M525,175.91c.47,6.48.92,12.67,1.4,19.2l26.59-2.2c-.7-6.35-1.37-12.42-2.05-18.64Z"/><path class="cls-2" d="M329.49,308.39l-30.88-6c-1.2,5.22-2.34,10.18-3.55,15.39l31.57,6C327.61,318.47,328.53,313.53,329.49,308.39Z"/><path class="cls-2" d="M605.56,317.75c-1.23-5.29-2.38-10.26-3.57-15.37l-30.87,6c1,5.23,1.91,10.17,2.89,15.35Z"/><path class="cls-2" d="M651.6,205.86c1.42,5.89,2.77,11.51,4.16,17.31L684.15,218c-1.63-5.63-3.18-11-4.79-16.5Z"/><path class="cls-2" d="M465.67,320.19H434.86V335.7h30.81Z"/><path class="cls-2" d="M363.51,313.9,332.72,309c-1,5.24-1.87,10.19-2.82,15.42l31.58,5C362.2,324,362.85,319,363.51,313.9Z"/><path class="cls-2" d="M570.73,324.44c-1-5.26-1.89-10.22-2.85-15.43l-30.79,4.89c.68,5.1,1.34,10.08,2,15.47Z"/><path class="cls-2" d="M136.26,247c-2.13,4.48-4.14,9-6.27,13.73,9.89,2.14,19.37,4.21,28.87,6.19a2.19,2.19,0,0,0,1.92-.81c1.95-4.55,3.76-9.16,5.59-13.71-.33-.23-.45-.37-.6-.4-9.25-1.95-18.5-3.9-27.77-5.78A2,2,0,0,0,136.26,247Z"/><path class="cls-2" d="M183.2,216.64c-1.77,4.72-3.42,9.48-5.18,14.42L207.18,237c1.69-5.49,3.31-10.78,4.92-16-.31-.25-.43-.41-.57-.44-8.9-1.65-17.81-3.31-26.72-4.87A2,2,0,0,0,183.2,216.64Z"/><path class="cls-2" d="M762.37,246.34c-3,.5-6,1.16-9,1.78l-19.2,4c1.93,4.79,3.67,9.28,5.6,13.69a2.6,2.6,0,0,0,2.21,1.06c2.86-.45,5.69-1.18,8.53-1.79l20.17-4.31c-2.13-4.73-4.13-9.27-6.28-13.74C764.14,246.55,763,246.23,762.37,246.34Z"/><path class="cls-2" d="M535.91,329.82c-.77-5.35-1.48-10.33-2.21-15.41L503,317.79c.41,5.23.81,10.25,1.24,15.6Z"/><path class="cls-2" d="M499.72,318.1l-30.36,2v15.64l31.61-2C500.53,328.29,500.14,323.34,499.72,318.1Z"/><path class="cls-2" d="M715.12,215.78c-2.63.33-20.21,3.64-26.72,4.84,1.73,5.63,3.34,10.84,5,16.29L722.48,231c-1.77-5-3.41-9.76-5.22-14.46C717.07,216.09,715.82,215.69,715.12,215.78Z"/><path class="cls-2" d="M397.52,317.78l-30.75-3.39c-.68,5.19-1.32,10.17-2,15.45l31.61,3.54C396.77,327.9,397.15,322.83,397.52,317.78Z"/><path class="cls-2" d="M619.92,207.15l27.69-4.05c-1.35-5.8-2.64-11.34-4-17l-27,3.27C617.77,195.38,618.83,201.16,619.92,207.15Z"/><path class="cls-2" d="M431.32,320.09l-30.43-2c-.4,5.22-.79,10.29-1.2,15.67l31.63,1.95Z"/><path class="cls-2" d="M681.49,319.7l-5.17-14.27-31.87,7.2c1.51,4.81,2.93,9.29,4.37,13.85Z"/><path class="cls-2" d="M554.31,174c.68,6.37,1.32,12.44,2,18.68l26.53-2.74c-.88-6.09-1.73-12-2.6-18Z"/><path class="cls-2" d="M256.13,312.62l-31.83-7.19-5.18,14.28,32.67,6.76C253.26,321.78,254.66,317.3,256.13,312.62Z"/><path class="cls-2" d="M311.65,385.65l-35.58-3.23-4.32,13.82,36.87,1.93C309.69,393.76,310.65,389.77,311.65,385.65Z"/><path class="cls-2" d="M317.87,189.94l26.5,2.71c.67-6.37,1.3-12.43,1.95-18.68l-25.88-2.05C319.56,178.1,318.72,184,317.87,189.94Z"/><path class="cls-2" d="M407.49,200.9s-1.16,16.76-1.32,20l27.11,1v-21C429.73,201.08,407.49,200.9,407.49,200.9Z"/><path class="cls-2" d="M628.76,396.17c-1.47-4.85-2.81-9.26-4.19-13.77l-35.63,3.26c1,4.23,2,8.22,3,12.36Z"/><path class="cls-2" d="M727,233.52l5.91,15.5,29.57-6.16L756.15,228Z"/><path class="cls-2" d="M211.32,340.69c-1.82,4.14-3.39,8.38-5.15,12.91l34.53,4.94,4.5-12.74-5.65-1c-8.5-1.56-17-3.15-25.5-4.63C213.16,340,211.54,340.18,211.32,340.69Z"/><path class="cls-2" d="M767.22,245.19,774,260l30.33-5.65c-2.3-4.6-4.42-9-6.71-13.31a2.56,2.56,0,0,0-2.17-.89C786.23,241.76,777,243.44,767.22,245.19Z"/><path class="cls-2" d="M133.35,245.18c-9.73-1.74-19-3.41-28.22-5a2.34,2.34,0,0,0-2,.75c-2.32,4.4-4.49,8.88-6.78,13.49L126.62,260Z"/><path class="cls-2" d="M694.41,353.51c-1.61-4.14-3.21-7.88-4.51-11.74-.61-1.82-1.57-2-3.16-1.66-4.57.89-9.16,1.67-13.74,2.49l-17.63,3.17,4.49,12.79Z"/><path class="cls-2" d="M462.91,156.18H437.6V174.5h25.31Z"/><path class="cls-2" d="M434.08,155.94H408.76v18.3h25.32Z"/><path class="cls-2" d="M138.15,242.82c1.87.36,3.33.63,4.79.93q11.2,2.34,22.42,4.68c1.18.24,2.36.73,3-1.07,1.6-4.53,3.37-9,5.19-13.81L144.45,228Z"/><path class="cls-2" d="M682.58,200.94l4.78,16.38,28.44-5.09c-1.85-5.41-3.57-10.47-5.32-15.6Z"/><path class="cls-2" d="M184.72,212.23l28.52,5.15L218,201.07l-27.86-4.47C188.31,201.87,186.56,206.93,184.72,212.23Z"/><path class="cls-2" d="M687.83,336.5c-1.79-4.68-3.48-9.13-5.2-13.64l-32.82,6.82,4.45,12.95Z"/><path class="cls-2" d="M250.74,329.68,218,322.88l-5.17,13.68,33.52,6.09C247.84,338.2,249.26,334.05,250.74,329.68Z"/><path class="cls-2" d="M583.54,171.62c.88,6.13,1.73,12,2.6,18l26.63-3.12c-1.06-5.84-2.07-11.37-3.13-17.15Z"/><path class="cls-2" d="M417.3,197.09h0l16.43,0s.06-14.78.06-19.32h-25.7c-.27,6.13-.54,12.42-.84,19.09C410.72,196.9,414.07,197.23,417.3,197.09Z"/><path class="cls-2" d="M287.93,186.49l26.64,3.1c.83-6.12,1.61-11.92,2.44-18l-26-2.25C290,175.18,289,180.72,287.93,186.49Z"/><path class="cls-2" d="M746.19,210.2c-5.88,1.1-11.77,2.13-17.65,3.19l-8.21,1.5c1.1,3.14,2.06,6,3.07,8.75.77,2.11,1,5.17,2.55,6s4.4-.18,6.65-.59c7.32-1.34,14.63-2.77,22.21-4.22-1.82-4.44-3.65-8.61-5.22-12.88C748.91,210.12,747.87,209.88,746.19,210.2Z"/><path class="cls-2" d="M765.09,240.43c.59,1.45,1.28,1.72,2.81,1.41,5.85-1.21,11.74-2.23,17.62-3.31,3.28-.61,6.57-1.19,10.07-1.83-2.25-4.64-4.27-8.92-6.44-13.11a2.46,2.46,0,0,0-2-1.05C778,224,769,225.61,759.4,227.25,761.43,231.93,763.33,236.15,765.09,240.43Z"/><path class="cls-2" d="M151.6,210.91c-2,4.54-3.83,9.15-5.81,14,9.36,1.79,18.46,3.54,27.58,5.22a1.79,1.79,0,0,0,1.56-.65c1.82-4.78,3.53-9.6,5.34-14.65-9.21-1.59-18-3.13-26.86-4.59A2.1,2.1,0,0,0,151.6,210.91Z"/><path class="cls-2" d="M647,185.62c1.3,5.8,2.54,11.28,3.83,17l27.6-4.38c-1.58-5.6-3-10.77-4.56-16.12Z"/><path class="cls-2" d="M404.91,173.89c.27-6.31.54-12.24.81-18.42l-25.17-.79c-.45,6.11-.88,11.89-1.33,18Z"/><path class="cls-2" d="M135,241.22c2.05-4.52,4-9.08,6.13-14-9.53-1.64-18.68-3.24-27.85-4.75a2.05,2.05,0,0,0-1.7.89c-2.15,4.31-4.19,8.67-6.4,13.3,9.67,1.8,19,3.54,28.27,5.21A1.84,1.84,0,0,0,135,241.22Z"/><path class="cls-2" d="M629.05,378.76c6-.68,12.08-1.22,18.12-1.82l15.15-1.54c-1.47-4.16-2.75-8-4.24-11.8a2.59,2.59,0,0,0-2.16-1.13c-6.85.84-13.68,1.84-20.51,2.78-4,.56-8,1.1-12.25,1.68,1.14,3.59,2.27,6.87,3.19,10.22C626.79,378.74,627.58,378.93,629.05,378.76Z"/><path class="cls-2" d="M274,377.6c1.21-3.43,2.24-6.91,3.42-10.65-1.68-.25-3.14-.48-4.6-.68-9.3-1.26-18.6-2.55-27.92-3.74-.76-.09-2.12.35-2.34.88-1.54,3.85-2.86,7.78-4.36,12,11.61,1.16,22.85,2.31,34.1,3.36A2.19,2.19,0,0,0,274,377.6Z"/><path class="cls-2" d="M291,320.3l-31.61-6.91c-1.45,4.63-2.84,9.09-4.3,13.77l32.39,6.41C288.63,329.07,289.76,324.83,291,320.3Z"/><path class="cls-2" d="M645.53,327.15l-4.26-13.71-31.69,6.86,3.59,13.29Z"/><path class="cls-2" d="M350,170.92l25.85,1.59c.45-6.1.88-11.88,1.33-18l-25.32-1.22C351.2,159.3,350.6,165,350,170.92Z"/><path class="cls-2" d="M257.69,182.75l26.95,3.35c1.05-5.88,2-11.4,3.05-17.14l-26.25-2.58Z"/><path class="cls-2" d="M616.08,186.1l26.85-3.36c-1.3-5.65-2.52-11-3.77-16.38L613,169C614,174.9,615,180.42,616.08,186.1Z"/><path class="cls-2" d="M141.18,224a1.88,1.88,0,0,0,1.59-.67c2-4.54,3.83-9.13,5.87-14.07-9.31-1.45-18.22-2.86-27.15-4.17a2.31,2.31,0,0,0-1.84,1.08c-2,4.17-4,8.41-5.94,12.7a5.23,5.23,0,0,0,1,.44C123.52,220.89,132.34,222.48,141.18,224Z"/><path class="cls-2" d="M739.48,192.19c-4.59.74-9.19,1.41-13.78,2.12-3.9.61-7.78,1.24-11.87,1.89,1.81,5.28,3.49,10.22,5.27,15.42l28.22-4.92c-1.81-4.61-3.52-8.75-5-13C741.73,192.19,740.89,192,739.48,192.19Z"/><path class="cls-2" d="M752,209.29c2,4.83,3.82,9.43,5.81,14,.19.43,1.37.73,2,.63,3.45-.53,6.87-1.23,10.3-1.84,5.55-1,11.09-2,16.86-3-2-4.27-3.93-8.3-5.72-12.39a2.25,2.25,0,0,0-2.84-1.59C769.75,206.5,761.06,207.85,752,209.29Z"/><path class="cls-2" d="M158.7,193.09c-1.83,4.42-3.54,8.9-5.37,13.6l28,5,5.4-15.49c-9-1.37-17.69-2.72-26.39-4A2,2,0,0,0,158.7,193.09Z"/><path class="cls-2" d="M552.1,153.15c.64,6,1.26,11.67,1.89,17.55l25.87-2.06c-.85-5.9-1.64-11.39-2.46-17Z"/><path class="cls-2" d="M320.82,168.66l25.86,2c.63-6,1.23-11.62,1.85-17.54l-25.26-1.54C322.45,157.35,321.65,162.84,320.82,168.66Z"/><path class="cls-2" d="M677.26,181.75l4.5,16,27.71-4.28c-1.75-5.18-3.44-10.19-5.16-15.25Z"/><path class="cls-2" d="M326,327l-31.72-6c-1.18,4.47-2.28,8.63-3.52,13.28l32.38,6C324.09,335.65,325,331.41,326,327Z"/><path class="cls-2" d="M609.87,334.28c-1.26-4.72-2.38-8.95-3.54-13.29l-31.7,6c1,4.61,1.93,8.8,2.91,13.25Z"/><path class="cls-2" d="M191.23,193.48l27.62,4.29c1.21-4.29,2.56-8.31,3.35-12.43l.86-3.89s-19.77-2.33-26.84-3.26C194.54,183.32,192.92,188.3,191.23,193.48Z"/><path class="cls-2" d="M286.55,336.82,254,330.32c-1.47,4.36-2.86,8.48-4.34,12.89L283,349C284.2,344.84,285.34,341,286.55,336.82Z"/><path class="cls-2" d="M642.53,166c1.24,5.63,2.4,10.87,3.62,16.38l26.9-3.45c-1.48-5.38-2.89-10.46-4.31-15.62Z"/><path class="cls-2" d="M231.86,163.32,227.57,179l26.89,3.44c1.22-5.49,2.39-10.73,3.65-16.37Z"/><path class="cls-2" d="M350.83,388.64,315.1,386,312,398.33l36.7,1.68C349.43,396.06,350.1,392.47,350.83,388.64Z"/><path class="cls-2" d="M466.21,152.23h25.22c-.27-5.95-.53-11.46-.78-16.79H466.21Z"/><path class="cls-2" d="M650.93,343.17l-4.35-12.83L614,336.79c1.26,4.16,2.44,8,3.69,12.13Z"/><path class="cls-2" d="M434.46,135.4H410c-.25,5.54-.49,11.11-.75,17h25.26Z"/><path class="cls-2" d="M624.37,363.41c7.32-1.07,14.65-2,22-3,3.32-.46,6.62-1,10.11-1.52-.78-2.21-1.43-4.09-2.11-6-.77-2.1-1-5.08-2.51-6s-4.24.29-6.44.56l-.25,0-26.51,4.6c1,3.3,2,6.29,2.8,9.34C621.86,363.18,622.6,363.67,624.37,363.41Z"/><path class="cls-2" d="M291.62,166l25.91,2.38c.84-5.87,1.62-11.33,2.42-17l-25.41-1.67C293.54,155.25,292.61,160.47,291.62,166Z"/><path class="cls-2" d="M588.58,398.28c-1.07-4.32-2-8.22-3.05-12.31l-35.76,2.68c.75,3.84,1.45,7.47,2.17,11.18Z"/><path class="cls-2" d="M278.71,362.48c1.24-3.33,2.18-6.77,3.28-10.34l-33.5-5.77-4.4,12.52c2.13.31,4,.59,5.87.85,8.72,1.24,17.44,2.5,26.18,3.64C277,363.49,278.5,363,278.71,362.48Z"/><path class="cls-2" d="M360.94,332.62l-31.73-4.92c-.95,4.43-1.84,8.62-2.81,13.13l32.43,4.74C359.57,341,360.25,336.87,360.94,332.62Z"/><path class="cls-2" d="M583.14,168.33,609,165.94c-1-5.53-1.93-10.8-2.9-16.25l-25.33,1.71C581.53,157.09,582.3,162.5,583.14,168.33Z"/><path class="cls-2" d="M574.22,340.79c-1-4.61-1.9-8.8-2.83-13.1l-31.74,4.94c.74,4.42,1.45,8.62,2.18,13Z"/><path class="cls-2" d="M155.85,191.47l-27.75-3.9c-2.17,4.76-4.22,9.28-6.39,14.05l28.15,4.54C151.82,201.36,153.73,196.68,155.85,191.47Z"/><path class="cls-2" d="M760.5,189.19c-5.08.73-10.16,1.48-15.71,2.29l6,14.62,28.16-4.47c-2-4.4-3.89-8.38-5.61-12.43a2,2,0,0,0-2.65-1.42C767.27,188.32,763.88,188.71,760.5,189.19Z"/><path class="cls-2" d="M466.57,174.91c3.67-.34,25.38-1.09,25.38-1.09S492,159.51,492,156H466.57Z"/><path class="cls-2" d="M733.08,174.62c-8.4,1-16.79,2-25.42,3.08L712.8,193l27.43-4.2c-1.81-4.62-3.45-9-5.24-13.23A2.29,2.29,0,0,0,733.08,174.62Z"/><path class="cls-2" d="M165.6,175.39c-1.8,4.34-3.42,8.77-5.19,13.45,9,1.32,17.76,2.63,26.53,3.85.41.06,1.18-.56,1.34-1,1.57-4.55,3.05-9.13,4.64-14-8.61-1.07-16.85-2.11-25.1-3.06C167.09,174.56,165.8,174.9,165.6,175.39Z"/><path class="cls-2" d="M462.59,135.64H438v16.93h24.62Z"/><path class="cls-2" d="M494.76,152.19l25.08-.95c-.42-5.72-.81-11-1.2-16.25H494C494.26,140.91,494.5,146.42,494.76,152.19Z"/><path class="cls-2" d="M406.15,134.92H382c-.39,5.3-.79,10.65-1.2,16.35l25.36.9Z"/><path class="cls-2" d="M262.13,163.16l26.15,2.54c1-5.55,1.94-10.81,2.92-16.3l-25.57-1.85C264.44,152.89,263.33,157.82,262.13,163.16Z"/><path class="cls-2" d="M612.42,165.7l26.05-2.55c-1.18-5.31-2.3-10.3-3.5-15.63l-25.52,1.91Z"/><path class="cls-2" d="M396,336.76l-31.74-3.71c-.68,4.26-1.33,8.4-2.05,12.93l32.56,3.48C395.15,345.07,395.56,340.93,396,336.76Z"/><path class="cls-2" d="M538.36,346c-.72-4.51-1.38-8.71-2-12.93l-31.72,3.72c.44,4.29.87,8.38,1.32,12.69Z"/><path class="cls-2" d="M697,160.44c-5.13.43-10.25,1-15.37,1.53l-9.52,1c1.45,5.37,2.81,10.38,4.22,15.55l26.94-3.59c-1.53-4.68-2.93-9.1-4.48-13.47A2.19,2.19,0,0,0,697,160.44Z"/><path class="cls-2" d="M377.45,151.17c.44-5.73.86-11.15,1.29-16.78l-24.81-.81c-.59,5.59-1.14,10.85-1.73,16.37Z"/><path class="cls-2" d="M434.2,339.21v12.42h32.2V339.21Z"/><path class="cls-2" d="M501.31,337l-31.38,2v12.68l32.64-1.91C502.12,345.28,501.72,341.26,501.31,337Z"/><path class="cls-2" d="M398.06,349.83l32.75,1.89V339l-31.51-2C398.89,341.31,398.49,345.38,398.06,349.83Z"/><path class="cls-2" d="M312.76,381.37c.92-3.15,1.67-6.36,2.52-9.7-4.32-.51-8.37-.95-12.4-1.46-6.68-.86-13.35-1.81-20-2.61-.78-.09-2.19.33-2.38.85-1.24,3.41-2.22,6.92-3.4,10.78l5.15.46c9.62.85,19.23,1.71,28.85,2.49C311.62,382.23,312.63,381.79,312.76,381.37Z"/><path class="cls-2" d="M590.14,382.18c4.87-.5,9.77-.82,14.65-1.25,6.11-.54,12.21-1.12,18.69-1.71-1.1-3.58-2.18-6.71-3-9.91-.44-1.73-1.32-2-2.87-1.76-3.61.55-7.24,1-10.86,1.45l-21.43,2.74c.78,3,1.65,5.86,2.22,8.78C587.88,382.21,588.65,382.34,590.14,382.18Z"/><path class="cls-2" d="M348.91,149.81c.59-5.63,1.13-10.87,1.71-16.38l-24.7-.91c-.74,5.41-1.43,10.48-2.17,15.87Z"/><path class="cls-2" d="M743.26,187.21a2,2,0,0,0,1.71.86c8.61-1.15,17.22-2.39,26.14-3.66-1.93-4.35-3.75-8.53-5.68-12.64a2.11,2.11,0,0,0-1.72-.89c-8.41.94-16.81,2-25.65,3C739.87,178.6,741.5,182.93,743.26,187.21Z"/><path class="cls-2" d="M157.39,187.23c1.77-4.28,3.39-8.62,5.19-13.32-8.86-1-17.27-2.08-25.69-3a2.1,2.1,0,0,0-1.72.86c-1.93,4.13-3.73,8.31-5.64,12.66,8.84,1.26,17.37,2.51,25.92,3.66A2.32,2.32,0,0,0,157.39,187.23Z"/><path class="cls-2" d="M322.38,343.46l-32.63-5.91c-1.18,4-2.3,7.81-3.52,11.94l33.37,5.36Z"/><path class="cls-2" d="M610.8,337.45l-32.58,6c.92,3.89,1.75,7.42,2.67,11.37l33.4-5.39C613.1,345.37,612,341.49,610.8,337.45Z"/><path class="cls-2" d="M638.25,147.31c1.21,5.31,2.35,10.3,3.53,15.5l26.1-2.72c-1.38-5.11-2.68-9.9-4-14.88Z"/><path class="cls-2" d="M236.78,145.22c-1.34,5-2.65,9.82-4,14.88l26.05,2.71,3.45-15.51Z"/><path class="cls-2" d="M172.27,158.17c-1.72,4.21-3.34,8.47-5.09,13,8.77,1.1,17.26,2.19,25.76,3.19a1.81,1.81,0,0,0,1.38-1c1.49-4.31,2.88-8.66,4.32-13.06-.48-.3-.61-.45-.75-.47-8-.84-16.06-1.69-24.09-2.46A1.85,1.85,0,0,0,172.27,158.17Z"/><path class="cls-2" d="M726.53,157.46c-2.66.13-5.31.44-8,.72L701.86,160c1.56,4.77,2.93,9.12,4.46,13.42.16.48,1.24.94,1.84.89,3.48-.31,7-.76,10.42-1.2,4.85-.61,9.7-1.25,14.79-1.91-1.7-4.46-3.25-8.66-5-12.8A2.29,2.29,0,0,0,726.53,157.46Z"/><path class="cls-2" d="M389.86,390.86c-4.89-.23-9.45-.42-14-.68-6.55-.37-13.1-.84-19.65-1.14-.74,0-2.06.58-2.19,1.11-.78,3.13-1.27,6.33-1.94,9.94l36.57,1.18C389.07,397.66,389.46,394.34,389.86,390.86Z"/><path class="cls-2" d="M320.46,148.18c.72-5.4,1.4-10.53,2.1-15.83l-24.63-1.26c-.92,5.16-1.79,10-2.72,15.24Z"/><path class="cls-2" d="M548.55,400c-.63-3.35-1.31-6.26-1.7-9.21-.22-1.69-1-2-2.48-1.87q-9.95.69-19.9,1.25c-4.47.25-8.94.42-13.75.65.44,3.57.82,6.75,1.26,10.3Z"/><path class="cls-2" d="M318.86,358.08l-33.6-5.41c-1.18,3.87-2.3,7.55-3.5,11.47l34.39,4.31Z"/><path class="cls-2" d="M618.83,364.1c-1.28-4.1-2.4-7.72-3.56-11.47l-33.54,5.44c.94,3.61,1.8,6.89,2.73,10.43Z"/><path class="cls-2" d="M489.78,116.54H466v15.3h24.52C490.26,126.54,490,121.59,489.78,116.54Z"/><path class="cls-2" d="M434.69,116.45H410.83c-.23,5.09-.46,10.11-.7,15.43h24.56Z"/><path class="cls-2" d="M690.88,143.14c-5.55.34-11.1.82-16.65,1.27-2.27.19-4.55.4-7.05.63l4.06,14.7L697.41,157c-1.47-4.51-2.76-8.7-4.27-12.82C692.93,143.63,691.64,143.1,690.88,143.14Z"/><path class="cls-2" d="M269.48,130.79c-1.07,4.38-2,8.8-3.05,13.48l25.45,1.84c.91-5.17,1.77-10.09,2.68-15.24-8.14-.42-15.84-.83-23.55-1.15A2,2,0,0,0,269.48,130.79Z"/><path class="cls-2" d="M523.22,151.31c2.27-.19,4.48-.23,6.62-.39h0l18.07-1.12-.23-5.9c-.26-3.37-.72-6.72-1.14-10.3l-24.67.82C522.32,140.16,522.76,145.57,523.22,151.31Z"/><path class="cls-2" d="M606,131c1,5.21,1.89,10.13,2.82,15.16l25.38-1.86c-1.15-5.08-2.18-9.69-3.29-14.58Z"/><path class="cls-2" d="M577.64,355.32c-1-4-1.82-7.59-2.7-11.3l-32.59,4.8c.62,3.64,1.22,7.11,1.86,10.86Z"/><path class="cls-2" d="M164.12,169.71c1.69-4.13,3.24-8.32,5-12.9-8.57-.8-16.75-1.59-24.93-2.28a2.35,2.35,0,0,0-1.88,1c-1.83,3.9-3.51,7.86-5.32,12,8.65,1,17,2.08,25.45,3A2,2,0,0,0,164.12,169.71Z"/><path class="cls-2" d="M748.66,155.17l-17.12,1.67c1.81,4.76,3.51,9.24,5.29,13.91l26.78-3.2c-1.84-4.19-3.52-8.15-5.35-12.05a2.35,2.35,0,0,0-1.9-1C753.79,154.63,751.22,154.92,748.66,155.17Z"/><path class="cls-2" d="M462.24,116.66H438.32v15.49h23.92Z"/><path class="cls-2" d="M358.23,348.83l-32.58-4.78L323,355.38l33.47,4.2C357.07,355.85,357.65,352.38,358.23,348.83Z"/><path class="cls-2" d="M407.49,116.13h-24c-.39,5-.79,9.88-1.21,15.2h24.54C407,126.47,407.24,121.52,407.49,116.13Z"/><path class="cls-2" d="M518.38,131.28c-.43-5.3-.83-10.16-1.23-15h-24c.25,5.28.48,10.29.7,15Z"/><path class="cls-2" d="M546.28,130.36c-.55-4.86-1-9.39-1.65-13.89-.07-.46-1.3-1.08-2-1.07-6.81.06-13.62.24-20.43.4a12.63,12.63,0,0,0-1.76.31c.41,5.07.81,10,1.22,15.07Z"/><path class="cls-2" d="M380.22,115.34c-7.82,0-15.36,0-22.9,0a1.94,1.94,0,0,0-1.37,1.25c-.61,4.43-1.08,8.87-1.63,13.69l24.66.81C379.39,125.94,379.77,121,380.22,115.34Z"/><path class="cls-2" d="M507.36,391l-35.46,1.07v9.29h36.72C508.16,397.58,507.76,394.33,507.36,391Z"/><path class="cls-2" d="M392,401.6h36.76v-9.49l-35.54-1.06C392.81,394.46,392.43,397.74,392,401.6Z"/><path class="cls-2" d="M634.25,129.44c1,4.62,2,8.91,3,13.15a2.12,2.12,0,0,0,1.65,1.19c7.88-.5,15.75-1.11,24-1.73-1.34-4.86-2.57-9.33-3.85-14Z"/><path class="cls-2" d="M237.59,142c8.36.63,16.38,1.24,24.4,1.77a1.76,1.76,0,0,0,1.3-1.06c1-4.33,2-8.68,3-13.31L241.46,128C240.14,132.82,238.91,137.28,237.59,142Z"/><path class="cls-2" d="M723.7,145.74c-1.88-5.06-1.88-5.06-7.37-4.67-.74.05-1.49.05-2.23.11l-17.79,1.42c1.55,4.87,3,9.43,4.46,14.05L726.52,154a3.93,3.93,0,0,0,0-.77Q725.1,149.47,723.7,145.74Z"/><path class="cls-2" d="M353.34,375.8l-34.66-3.62c-.91,3.54-1.77,6.88-2.7,10.52l35.47,2.72Z"/><path class="cls-2" d="M584.66,382.68c-1-3.74-1.83-7-2.73-10.49l-34.66,3.62c.65,3.28,1.25,6.34,1.9,9.62Z"/><path class="cls-2" d="M574.16,129.16c-.74-5-1.43-9.62-2.09-14H547.91c.6,5.32,1.15,10.14,1.71,15.13Z"/><path class="cls-2" d="M352.71,115.05H328.63q-1,6.78-2.12,14L351,130.23C351.61,125.1,352.14,120.28,352.71,115.05Z"/><path class="cls-2" d="M468.35,392.23h-36c-.16,3.27-.31,6.39-.46,9.64h36.42Z"/><path class="cls-2" d="M540.88,360c-.57-3.15-1.19-6-1.55-8.84-.21-1.69-.88-2-2.44-1.75-5.84.76-11.7,1.41-17.56,2.05-4.28.47-8.57.86-13.05,1.31.38,3.47.75,6.73,1.15,10.4Z"/><path class="cls-2" d="M394.31,352.84l-32.64-3.52c-.65,3.53-1.25,6.86-1.95,10.66l33.48,3.2C393.61,359.39,394,356.14,394.31,352.84Z"/><path class="cls-2" d="M581.08,369l-2.67-10.45-33.62,4.39,1.87,9.67Z"/><path class="cls-2" d="M212.82,127.41c-1.39,4-2.67,8-4.07,12.29l25.5,2.07c1.28-4.68,2.5-9.14,3.83-14-8.19-.46-16-.91-23.81-1.29A1.82,1.82,0,0,0,212.82,127.41Z"/><path class="cls-2" d="M355.81,362.93l-33.61-4.38c-.87,3.42-1.71,6.69-2.67,10.43l34.45,3.6C354.6,369.29,355.18,366.23,355.81,362.93Z"/><path class="cls-2" d="M681.69,126.7c-6.28.31-12.56.74-19.11,1.13,1.3,4.79,2.54,9.3,3.8,14l25.4-2.08L689.3,132C687.52,126.47,687.52,126.42,681.69,126.7Z"/><path class="cls-2" d="M433.42,365.14h33.76c-.16-3.56-.31-6.76-.45-9.94H433.88C433.72,358.56,433.58,361.76,433.42,365.14Z"/><path class="cls-2" d="M175.38,140.34c-8.38-.65-16.39-1.29-24.41-1.85a1.88,1.88,0,0,0-1.52.86c-1.79,3.81-3.47,7.67-5.28,11.77l26.23,2.49C172.05,149.22,173.67,144.91,175.38,140.34Z"/><path class="cls-2" d="M323.26,127.75c.7-4.3,1.29-8.63,1.94-13.17l-23.95-.84c-.89,4.65-1.76,9.17-2.7,14.09,8,.37,15.75.75,23.47,1A1.74,1.74,0,0,0,323.26,127.75Z"/><path class="cls-2" d="M738.39,139.29c-4.26.34-8.53.7-13.1,1.08,1.75,4.64,3.37,8.95,5,13.24l26.12-2.5c-1.77-4.05-3.36-7.88-5.14-11.62a2.7,2.7,0,0,0-2.15-1C745.53,138.69,742,139,738.39,139.29Z"/><path class="cls-2" d="M578.22,132.14l.68,6.65c.41,3.09.91,6.17,1.4,9.4l25.17-1.9c-1-5.29-1.89-10.14-2.76-14.83-.3-.18-.37-.25-.45-.26C599.58,130.94,578.22,132.14,578.22,132.14Z"/><path class="cls-2" d="M503,353.1,470.43,355v10.24l33.66-1.77C503.69,359.82,503.33,356.55,503,353.1Z"/><path class="cls-2" d="M396.55,363.49l33.67,1.75V355l-32.56-1.91C397.3,356.5,396.94,359.84,396.55,363.49Z"/><path class="cls-2" d="M178.56,141.56c-1.64,4.05-3.13,8.16-4.71,12.39l25.59,2.66c1.1-1.78,3.82-13.46,3.82-13.46s-17.54-2-22.93-2.4A2.16,2.16,0,0,0,178.56,141.56Z"/><path class="cls-2" d="M297.84,113.78c-7.75-.32-15.37-.66-23-.92a1.79,1.79,0,0,0-1.38,1c-1,4-2,8.13-3,12.5l24.71,1.29C296.1,122.88,297,118.42,297.84,113.78Z"/><path class="cls-2" d="M714,124.77c-3.07.12-6.14.35-9.21.54l-13.86.85c1.37,4.18,2.57,8.06,4,11.87a2.54,2.54,0,0,0,2,1.15c3-.08,6-.36,9-.59,4.77-.37,9.55-.77,14.74-1.19-1.63-4.23-3.09-8.17-4.7-12.05C715.67,125,714.59,124.75,714,124.77Z"/><path class="cls-2" d="M207.61,143.81,202.86,157s21.25,2.15,26.48,2.7c1.34-4.92,2.63-9.63,4-14.76-7.91-.63-15.44-1.27-23-1.81C209.43,143.1,207.78,143.32,207.61,143.81Z"/><path class="cls-2" d="M265.74,126a2,2,0,0,0,1.55-1c1-4,1.94-8,2.94-12.28L246,111.75c-1.17,4.33-2.3,8.49-3.51,13C250.47,125.17,258.1,125.65,265.74,126Z"/><path class="cls-2" d="M545.83,385.65c-.7-3.45-1.31-6.49-1.93-9.52l-34.65,2.7c.38,3,.72,5.73,1.11,8.76Z"/><path class="cls-2" d="M391.35,378.82l-34.68-2.7c-.62,3.21-1.2,6.26-1.84,9.55l35.45,1.91C390.65,384.53,391,381.83,391.35,378.82Z"/><path class="cls-2" d="M578.9,128.85h0a29.3,29.3,0,0,0,7.92-.4c6.37-.36,14.26-.83,14.26-.83l.13-4.5c-.48-2.57-1.06-5-1.36-7.45-.2-1.61-.83-2-2.4-2-6.47.29-12.94.45-19.41.68-.88,0-1.75.17-2.72.27.74,4.91,1.44,9.55,2.11,14C577.93,128.76,578.42,128.81,578.9,128.85Z"/><path class="cls-2" d="M176.93,136.1c1.55-3.72,2.94-7.51,4.53-11.68-8.24-.44-16.09-.87-24-1.23a1.94,1.94,0,0,0-1.46,1c-1.62,3.53-3.13,7.11-4.79,10.93,8.22.68,16,1.36,23.77,1.94A2.32,2.32,0,0,0,176.93,136.1Z"/><path class="cls-2" d="M543.28,372.87c-.6-3.22-1.15-6.21-1.76-9.52l-33.73,3.13c.37,3.1.72,5.94,1.09,8.95Z"/><path class="cls-2" d="M723.18,135.09c.6,1.84,1.58,2.11,3.3,1.94,5.87-.56,11.75-.95,17.63-1.43,1.68-.14,3.35-.33,5.27-.52-1.69-3.84-3.18-7.34-4.79-10.78a2.21,2.21,0,0,0-1.62-1.1c-7.78.36-15.56.82-23.79,1.27C720.63,128.28,722.05,131.64,723.18,135.09Z"/><path class="cls-2" d="M392.82,366.47l-33.72-3.1c-.61,3.27-1.16,6.27-1.76,9.49l34.39,2.57C392.1,372.34,392.45,369.49,392.82,366.47Z"/><path class="cls-2" d="M663,124.48c7.7-.38,15.41-.86,23.48-1.34-1.32-4-2.47-7.66-3.74-11.24a2.12,2.12,0,0,0-1.54-1.14c-7.62.25-15.23.6-23.1.93,1.14,4.09,2.16,7.93,3.32,11.72A2,2,0,0,0,663,124.48Z"/><path class="cls-2" d="M237.66,124.49a2,2,0,0,0,1.57-1.08c1.16-3.8,2.18-7.65,3.3-11.69-7.8-.32-15.36-.66-22.92-.92a1.91,1.91,0,0,0-1.55.79c-1.34,3.74-2.54,7.53-3.85,11.52C222.22,123.6,229.94,124.09,237.66,124.49Z"/><path class="cls-2" d="M433,377.17h34.68c-.14-3-.26-5.76-.39-8.49H433.35C433.22,371.47,433.09,374.11,433,377.17Z"/><path class="cls-2" d="M504.43,366.7l-33.52,1.82v8.71l34.63-1.55C505.14,372.39,504.78,369.55,504.43,366.7Z"/><path class="cls-2" d="M396,367.86c-.39,2.51-.57,5.05-.86,7.84l34.56,1.52v-8.66c-10.83-.63-21.53-1.28-32.25-1.83A1.88,1.88,0,0,0,396,367.86Z"/><path class="cls-2" d="M506,379l-34.53,1.44v8.36l35.52-1C506.61,384.73,506.31,382,506,379Z"/><path class="cls-2" d="M393.65,387.83l35.61,1v-8.36L394.66,379C394.32,382,394,384.71,393.65,387.83Z"/><path class="cls-2" d="M432.87,380.63c-.12,2.73-.25,5.35-.38,8.13h35.3v-8.13Z"/><path class="cls-2" d="M691.28,122.74c7.56-.34,15.11-.83,23.15-1.3-1.38-3.6-2.7-6.81-3.82-10.09-.51-1.49-1.34-1.8-2.78-1.72-6.65.33-13.3.57-20,.87-.61,0-1.22.19-2,.31,1.19,3.69,2.24,7.19,3.49,10.62A2.46,2.46,0,0,0,691.28,122.74Z"/><path class="cls-2" d="M719.52,121.11c3.33-.07,6.65-.3,10-.49,4.22-.25,8.44-.52,13.13-.81-1.53-3.47-3-6.48-4.17-9.56a2.42,2.42,0,0,0-2.84-1.71c-3.4.2-6.81.25-10.22.38-3.87.14-7.73.32-11.93.49,1.46,3.83,2.72,7.33,4.16,10.75A2.36,2.36,0,0,0,719.52,121.11Z"/><path class="cls-2" d="M376.07,218.47s20.93,1.79,26.75,2.21c.2-3.89,1.09-19.23.7-20.49l-26.23-1.58C376.88,204.15,376.07,218.47,376.07,218.47Z"/><path class="cls-2" d="M186.16,109.71s-17.24-1-21.73-1.1a2.43,2.43,0,0,0-1.9,1.07c-1.55,3.21-2.92,6.49-4.52,10.12,8.08.48,15.86,1,23.65,1.35C182.12,121.17,186.16,109.71,186.16,109.71Z"/><path class="cls-2" d="M202.34,160.45a2.08,2.08,0,0,0-.6,1c-1.45,4.39-2.87,8.8-4.39,13.47,7.18.94,26.73,3.69,26.73,3.69,1.46-5.4,3.09-10.8,4.41-15.68C224,162.49,202.9,160.06,202.34,160.45Z"/><path class="cls-2" d="M463.36,197.75v-9.17l.43-10.41H437.3c0,4.09.14,19,.14,19C437.17,197.55,454.64,197.75,463.36,197.75Z"/><path class="cls-2" d="M521.29,170.15l-.55-15.5-25.84.83c.17,3.8.48,18.66.4,18.78,4.61-.33,21.81-1.35,26.09-1.55,0-.11,0-.22,0-.32h.14C521.43,171.62,521.36,170.89,521.29,170.15Z"/><path class="cls-2" d="M180,137.43l16.11,1.23,6.93.58a3.42,3.42,0,0,0,1.1.09h.07v0a1.54,1.54,0,0,0,1.42-.81c1.39-4,2.62-8.07,4-12.3l-13.49-.8h0l-11.31-.69S181.62,133.21,180,137.43Z"/><path class="cls-2" d="M372.19,222.27l-27.08-3.38s-2.38,17.57-2.24,20.2l27.67,3.25C371.09,235.55,371.62,229.13,372.19,222.27Z"/><polygon class="cls-2" points="240.78 250.63 237.17 264.42 237.68 264.53 266.61 270.7 270.54 252.97 241.63 247.39 240.78 250.63"/><path class="cls-2" d="M335.79,265l-22.19-3.7-6.94-1.34L304,275.22c-.2.94-.58,3.32-.58,3.32l2.07.45,0,0h0l0,0,.59.11,1.5.32,0,0c3.63.73,7.28,1.41,10.92,2.08,4.87.88,9.75,1.72,14.76,2.6C334.11,277.54,335,271.31,335.79,265Z"/><path class="cls-2" d="M225,188.64l0-.06-2.67,9.67,9,1.45,10.11,1.59c2.72.43,5.49.83,8.38,1.26,1.29-5.67,2.54-11.19,3.83-16.94L227,182.19Z"/><path class="cls-2" d="M280.06,209.91s-24.19-2.88-27.66-3.65l-4.54,17.35L276,228.27Z"/><path class="cls-2" d="M257,186.08c-1.32,5.77-2.6,11.31-3.9,16.95l15.74,2.52,11.84,1.7.29-1.3c1.05-5.7,2-11.06,3.06-16.61Z"/><path class="cls-2" d="M284.14,206.51l-.26,1.21,11.05,1.59,16.4,2.07c.92-6.24,1.82-12.3,2.74-18.55l-26.73-3.1C286.26,195.38,285.22,200.83,284.14,206.51Z"/><path class="cls-2" d="M279.29,228.81l28.34,4.7,3-17.68.18-1.07-.93-.15.74.24c-3.83-.82-27.29-4.43-27.29-4.43Z"/><path class="cls-2" d="M297.51,209.68l-2.58-.37-2.62-.33Z"/><path class="cls-2" d="M301,210.15l-3.5-.47h0Z"/><path class="cls-2" d="M340.26,228.85c.5-3.34.83-6.7,1.22-10.16l-27.25-3.36c-.69,4.36-1.36,8.53-2.05,12.88l-1,5.88s26.43,4.18,28,4.36Z"/><path class="cls-2" d="M466.88,184.43c-.11,4.36-.06,8.73-.06,13.35l26.54-.8c-.29-6.65-.56-13-.86-19.84l-25.69,1Z"/><path class="cls-2" d="M544.16,153.49h0l-1.12.1L524,155.19s.49,13.48.78,17.33l25.83-1.59c-.61-6-1.19-11.77-1.79-17.79C547.19,153.31,545.65,153.39,544.16,153.49Z"/><path class="cls-2" d="M552.52,133.38c-.79,0-1.57.19-2.49.31.35,3.37.68,6.49,1.06,10.06l.69,5.2.21.83,24.92-1.39-1.3-9.18c-.2.08-.92-6.68-.92-6.68C574.12,132.33,559.35,133.08,552.52,133.38Z"/><path class="cls-2" d="M605.56,127c.06.21.11.42.16.63l24.44-1.33c-.74-3-2.61-13.32-2.66-13.47-7.61.27-17,.53-24.79.8.56,2.92,1.06,5.51,1.63,8.43Z"/><path class="cls-1" d="M899.91,446.19h0L1,445.92a1,1,0,0,1-.85-.47,1,1,0,0,1,0-1c61.54-123.11,124.79-249.54,162-336.25a1,1,0,0,1,1-.61c182.29,9.63,377.2,5.92,574.15.48a1,1,0,0,1,1,.6c36.52,81.9,89.38,188.44,162.59,336.05a1,1,0,0,1-.89,1.45ZM2.63,443.92l895.65.27C824,298,772.62,191.8,736.66,110.13c-198.75,10.32-391.52,10.16-573-.48C127.13,195.79,64.74,321.11,2.63,443.92Z"/><polygon points="366.4 182.08 366.4 293.28 447.47 344.37 447.47 235.57 366.4 182.08"/><path class="cls-3" d="M449.07,347.28,364.8,294.17V179.1l84.27,55.61ZM368,292.39l77.85,49.07v-105L368,185.06Z"/><polygon points="530.74 181.55 530.74 290.59 449.67 344.37 449.67 234 530.74 181.55"/><path class="cls-3" d="M448.08,347.34V233.14l.73-.47,83.52-54V291.44Zm3.18-112.47V341.41l77.88-51.68V184.47Z"/><polygon class="cls-4" points="367.42 179.4 448.29 233.8 529.35 178.74 448.49 126.74 367.42 179.4"/><path class="cls-3" d="M448.3,235.73l-83.78-56.36,84-54.53,83.76,53.86Zm-78-56.31,78,52.45,78.16-53.1-78-50.13Z"/><circle class="cls-5" cx="584.63" cy="23.81" r="23.8"/><circle class="cls-6" cx="641.88" cy="182.16" r="23.8"/><circle class="cls-7" cx="701.15" cy="242.92" r="19.24"/><circle class="cls-8" cx="308.34" cy="330.63" r="19.24"/><circle class="cls-9" cx="178.78" cy="246.17" r="24.48"/><circle class="cls-10" cx="310.77" cy="101" r="19.24"/></g></g></svg>