<svg xmlns="http://www.w3.org/2000/svg" viewBox="0 0 46.98 47.29"><defs><style>.cls-1{fill:#fff;}</style></defs><g id="레이어_2" data-name="레이어 2"><g id="레이어_1-2" data-name="레이어 1"><path class="cls-1" d="M32.78,23.26c0-5.59-4.52-9.55-10.11-9.55H1.9A23.3,23.3,0,0,0,.12,19.27H23.88a4,4,0,0,1,0,8H0a23.39,23.39,0,0,0,1.81,6.12H22.67A10.11,10.11,0,0,0,32.78,23.26Z"/><path class="cls-1" d="M6.11,39.8a23.55,23.55,0,0,0,17.23,7.49,23.29,23.29,0,0,0,5.51-.68L23.18,39.8Z"/><path class="cls-1" d="M47,23.64A23.62,23.62,0,0,0,6.09,7.51H24A16.14,16.14,0,0,1,40.09,23.65c0,6.67-3.4,11.74-9.16,14.21l4.63,6A23.62,23.62,0,0,0,47,23.64Z"/></g></g></svg>