<svg width="372" height="372" viewBox="0 0 372 372" fill="none" xmlns="http://www.w3.org/2000/svg">
<g clip-path="url(#clip0_14_842)">
<path d="M37.5993 0.498657H0.499023V37.5989H37.5993V0.498657Z" stroke="#333333" stroke-miterlimit="10"/>
<path d="M74.6989 0.498657H37.5986V37.5989H74.6989V0.498657Z" stroke="#333333" stroke-miterlimit="10"/>
<path d="M111.799 0.498657H74.6992V37.5989H111.799V0.498657Z" stroke="#333333" stroke-miterlimit="10"/>
<path d="M148.9 0.498657H111.8V37.5989H148.9V0.498657Z" stroke="#333333" stroke-miterlimit="10"/>
<path d="M186 0.498657H148.899V37.5989H186V0.498657Z" stroke="#333333" stroke-miterlimit="10"/>
<path d="M223.1 0.498657H186V37.5989H223.1V0.498657Z" stroke="#333333" stroke-miterlimit="10"/>
<path d="M260.201 0.498657H223.101V37.5989H260.201V0.498657Z" stroke="#333333" stroke-miterlimit="10"/>
<path d="M297.3 0.498657H260.2V37.5989H297.3V0.498657Z" stroke="#333333" stroke-miterlimit="10"/>
<path d="M334.401 0.498657H297.301V37.5989H334.401V0.498657Z" stroke="#333333" stroke-miterlimit="10"/>
<path d="M371.502 0.498657H334.401V37.5989H371.502V0.498657Z" stroke="#333333" stroke-miterlimit="10"/>
<path d="M37.5993 37.5989H0.499023V74.6992H37.5993V37.5989Z" stroke="#333333" stroke-miterlimit="10"/>
<path d="M74.6989 37.5989H37.5986V74.6992H74.6989V37.5989Z" stroke="#333333" stroke-miterlimit="10"/>
<path d="M111.799 37.5989H74.6992V74.6992H111.799V37.5989Z" stroke="#333333" stroke-miterlimit="10"/>
<path d="M148.9 37.5989H111.8V74.6992H148.9V37.5989Z" stroke="#333333" stroke-miterlimit="10"/>
<path d="M186 37.5989H148.899V74.6992H186V37.5989Z" stroke="#333333" stroke-miterlimit="10"/>
<path d="M223.1 37.5989H186V74.6992H223.1V37.5989Z" stroke="#333333" stroke-miterlimit="10"/>
<path d="M260.201 37.5989H223.101V74.6992H260.201V37.5989Z" stroke="#333333" stroke-miterlimit="10"/>
<path d="M297.3 37.5989H260.2V74.6992H297.3V37.5989Z" stroke="#333333" stroke-miterlimit="10"/>
<path d="M334.401 37.5989H297.301V74.6992H334.401V37.5989Z" stroke="#333333" stroke-miterlimit="10"/>
<path d="M371.502 37.5989H334.401V74.6992H371.502V37.5989Z" stroke="#333333" stroke-miterlimit="10"/>
<path d="M37.5993 74.6992H0.499023V111.799H37.5993V74.6992Z" stroke="#333333" stroke-miterlimit="10"/>
<path d="M74.6989 74.6992H37.5986V111.799H74.6989V74.6992Z" stroke="#333333" stroke-miterlimit="10"/>
<path d="M111.799 74.6992H74.6992V111.799H111.799V74.6992Z" stroke="#333333" stroke-miterlimit="10"/>
<path d="M148.9 74.6992H111.8V111.799H148.9V74.6992Z" stroke="#333333" stroke-miterlimit="10"/>
<path d="M186 74.6992H148.899V111.799H186V74.6992Z" stroke="#333333" stroke-miterlimit="10"/>
<path d="M223.1 74.6992H186V111.799H223.1V74.6992Z" stroke="#333333" stroke-miterlimit="10"/>
<path d="M260.201 74.6992H223.101V111.799H260.201V74.6992Z" stroke="#333333" stroke-miterlimit="10"/>
<path d="M297.3 74.6992H260.2V111.799H297.3V74.6992Z" stroke="#333333" stroke-miterlimit="10"/>
<path d="M334.401 74.6992H297.301V111.799H334.401V74.6992Z" stroke="#333333" stroke-miterlimit="10"/>
<path d="M371.502 74.6992H334.401V111.799H371.502V74.6992Z" stroke="#333333" stroke-miterlimit="10"/>
<path d="M37.5993 111.799H0.499023V148.9H37.5993V111.799Z" stroke="#333333" stroke-miterlimit="10"/>
<path d="M74.6989 111.799H37.5986V148.9H74.6989V111.799Z" stroke="#333333" stroke-miterlimit="10"/>
<path d="M111.799 111.799H74.6992V148.9H111.799V111.799Z" stroke="#333333" stroke-miterlimit="10"/>
<path d="M148.9 111.799H111.8V148.9H148.9V111.799Z" stroke="#333333" stroke-miterlimit="10"/>
<path d="M186 111.799H148.899V148.9H186V111.799Z" stroke="#333333" stroke-miterlimit="10"/>
<path d="M223.1 111.799H186V148.9H223.1V111.799Z" stroke="#333333" stroke-miterlimit="10"/>
<path d="M260.201 111.799H223.101V148.9H260.201V111.799Z" stroke="#333333" stroke-miterlimit="10"/>
<path d="M297.3 111.799H260.2V148.9H297.3V111.799Z" stroke="#333333" stroke-miterlimit="10"/>
<path d="M334.401 111.799H297.301V148.9H334.401V111.799Z" stroke="#333333" stroke-miterlimit="10"/>
<path d="M371.502 111.799H334.401V148.9H371.502V111.799Z" stroke="#333333" stroke-miterlimit="10"/>
<path d="M37.5993 148.9H0.499023V186H37.5993V148.9Z" stroke="#333333" stroke-miterlimit="10"/>
<path d="M74.6989 148.9H37.5986V186H74.6989V148.9Z" stroke="#333333" stroke-miterlimit="10"/>
<path d="M111.799 148.9H74.6992V186H111.799V148.9Z" stroke="#333333" stroke-miterlimit="10"/>
<path d="M148.9 148.9H111.8V186H148.9V148.9Z" stroke="#333333" stroke-miterlimit="10"/>
<path d="M186 148.9H148.899V186H186V148.9Z" stroke="#333333" stroke-miterlimit="10"/>
<path d="M223.1 148.9H186V186H223.1V148.9Z" stroke="#333333" stroke-miterlimit="10"/>
<path d="M260.201 148.9H223.101V186H260.201V148.9Z" stroke="#333333" stroke-miterlimit="10"/>
<path d="M297.3 148.9H260.2V186H297.3V148.9Z" stroke="#333333" stroke-miterlimit="10"/>
<path d="M334.401 148.9H297.301V186H334.401V148.9Z" stroke="#333333" stroke-miterlimit="10"/>
<path d="M371.502 148.9H334.401V186H371.502V148.9Z" stroke="#333333" stroke-miterlimit="10"/>
<path d="M37.5993 186H0.499023V223.1H37.5993V186Z" stroke="#333333" stroke-miterlimit="10"/>
<path d="M74.6989 186H37.5986V223.1H74.6989V186Z" stroke="#333333" stroke-miterlimit="10"/>
<path d="M111.799 186H74.6992V223.1H111.799V186Z" stroke="#333333" stroke-miterlimit="10"/>
<path d="M148.9 186H111.8V223.1H148.9V186Z" stroke="#333333" stroke-miterlimit="10"/>
<path d="M186 186H148.899V223.1H186V186Z" stroke="#333333" stroke-miterlimit="10"/>
<path d="M223.1 186H186V223.1H223.1V186Z" stroke="#333333" stroke-miterlimit="10"/>
<path d="M260.201 186H223.101V223.1H260.201V186Z" stroke="#333333" stroke-miterlimit="10"/>
<path d="M297.3 186H260.2V223.1H297.3V186Z" stroke="#333333" stroke-miterlimit="10"/>
<path d="M334.401 186H297.301V223.1H334.401V186Z" stroke="#333333" stroke-miterlimit="10"/>
<path d="M371.502 186H334.401V223.1H371.502V186Z" stroke="#333333" stroke-miterlimit="10"/>
<path d="M37.5993 223.1H0.499023V260.2H37.5993V223.1Z" stroke="#333333" stroke-miterlimit="10"/>
<path d="M74.6989 223.1H37.5986V260.2H74.6989V223.1Z" stroke="#333333" stroke-miterlimit="10"/>
<path d="M111.799 223.1H74.6992V260.2H111.799V223.1Z" stroke="#333333" stroke-miterlimit="10"/>
<path d="M148.9 223.1H111.8V260.2H148.9V223.1Z" stroke="#333333" stroke-miterlimit="10"/>
<path d="M186 223.1H148.899V260.2H186V223.1Z" stroke="#333333" stroke-miterlimit="10"/>
<path d="M223.1 223.1H186V260.2H223.1V223.1Z" stroke="#333333" stroke-miterlimit="10"/>
<path d="M260.201 223.1H223.101V260.2H260.201V223.1Z" stroke="#333333" stroke-miterlimit="10"/>
<path d="M297.3 223.1H260.2V260.2H297.3V223.1Z" stroke="#333333" stroke-miterlimit="10"/>
<path d="M334.401 223.1H297.301V260.2H334.401V223.1Z" stroke="#333333" stroke-miterlimit="10"/>
<path d="M371.502 223.1H334.401V260.2H371.502V223.1Z" stroke="#333333" stroke-miterlimit="10"/>
<path d="M37.5993 260.201H0.499023V297.301H37.5993V260.201Z" stroke="#333333" stroke-miterlimit="10"/>
<path d="M74.6989 260.201H37.5986V297.301H74.6989V260.201Z" stroke="#333333" stroke-miterlimit="10"/>
<path d="M111.799 260.201H74.6992V297.301H111.799V260.201Z" stroke="#333333" stroke-miterlimit="10"/>
<path d="M148.9 260.201H111.8V297.301H148.9V260.201Z" stroke="#333333" stroke-miterlimit="10"/>
<path d="M186 260.201H148.899V297.301H186V260.201Z" stroke="#333333" stroke-miterlimit="10"/>
<path d="M223.1 260.201H186V297.301H223.1V260.201Z" stroke="#333333" stroke-miterlimit="10"/>
<path d="M260.201 260.201H223.101V297.301H260.201V260.201Z" stroke="#333333" stroke-miterlimit="10"/>
<path d="M297.3 260.201H260.2V297.301H297.3V260.201Z" stroke="#333333" stroke-miterlimit="10"/>
<path d="M334.401 260.201H297.301V297.301H334.401V260.201Z" stroke="#333333" stroke-miterlimit="10"/>
<path d="M371.502 260.201H334.401V297.301H371.502V260.201Z" stroke="#333333" stroke-miterlimit="10"/>
<path d="M37.5993 297.301H0.499023V334.401H37.5993V297.301Z" stroke="#333333" stroke-miterlimit="10"/>
<path d="M74.6989 297.301H37.5986V334.401H74.6989V297.301Z" stroke="#333333" stroke-miterlimit="10"/>
<path d="M111.799 297.301H74.6992V334.401H111.799V297.301Z" stroke="#333333" stroke-miterlimit="10"/>
<path d="M148.9 297.301H111.8V334.401H148.9V297.301Z" stroke="#333333" stroke-miterlimit="10"/>
<path d="M186 297.301H148.899V334.401H186V297.301Z" stroke="#333333" stroke-miterlimit="10"/>
<path d="M223.1 297.301H186V334.401H223.1V297.301Z" stroke="#333333" stroke-miterlimit="10"/>
<path d="M260.201 297.301H223.101V334.401H260.201V297.301Z" stroke="#333333" stroke-miterlimit="10"/>
<path d="M297.3 297.301H260.2V334.401H297.3V297.301Z" stroke="#333333" stroke-miterlimit="10"/>
<path d="M334.401 297.301H297.301V334.401H334.401V297.301Z" stroke="#333333" stroke-miterlimit="10"/>
<path d="M371.502 297.301H334.401V334.401H371.502V297.301Z" stroke="#333333" stroke-miterlimit="10"/>
<path d="M37.5993 334.401H0.499023V371.501H37.5993V334.401Z" stroke="#333333" stroke-miterlimit="10"/>
<path d="M74.6989 334.401H37.5986V371.501H74.6989V334.401Z" stroke="#333333" stroke-miterlimit="10"/>
<path d="M111.799 334.401H74.6992V371.501H111.799V334.401Z" stroke="#333333" stroke-miterlimit="10"/>
<path d="M148.9 334.401H111.8V371.501H148.9V334.401Z" stroke="#333333" stroke-miterlimit="10"/>
<path d="M186 334.401H148.899V371.501H186V334.401Z" stroke="#333333" stroke-miterlimit="10"/>
<path d="M223.1 334.401H186V371.501H223.1V334.401Z" stroke="#333333" stroke-miterlimit="10"/>
<path d="M260.201 334.401H223.101V371.501H260.201V334.401Z" stroke="#333333" stroke-miterlimit="10"/>
<path d="M297.3 334.401H260.2V371.501H297.3V334.401Z" stroke="#333333" stroke-miterlimit="10"/>
<path d="M334.401 334.401H297.301V371.501H334.401V334.401Z" stroke="#333333" stroke-miterlimit="10"/>
<path d="M371.502 334.401H334.401V371.501H371.502V334.401Z" stroke="#333333" stroke-miterlimit="10"/>
<g clip-path="url(#clip1_14_842)">
<path d="M181 114.24C149.53 93.1 127.9 59 132.82 45.12C130.73 47.22 127.1 52.62 125.56 54.62C116 67 134.12 99.48 167.75 125.43C201.38 151.38 237.75 160.99 247.35 148.6C248.88 146.6 255.35 140.86 255.43 138C243.21 146.68 212.74 135.56 181 114.24Z" fill="url(#paint0_linear_14_842)"/>
<path d="M212.65 67.65C179 41.7 144 30.7 134.45 43.09C132.873 45.2136 132.015 47.785 132 50.43C131.5 65.35 149.77 90.74 178 112.51C206.23 134.28 235.4 145.51 249.71 141.26C252.267 140.596 254.543 139.127 256.2 137.07C265.8 124.69 246.29 93.6 212.65 67.65Z" fill="#5C38F2"/>
<path d="M137.13 261.19C99.2696 263.19 61.5096 248.87 57.1296 234.82C56.7096 237.74 57.0496 244.25 57.0196 246.82C56.7996 262.46 90.7896 277.57 133.26 278.15C175.73 278.73 210.62 264.56 210.84 248.91C210.84 246.4 212.58 237.91 210.94 235.58C206.36 249.81 175.31 259.2 137.13 261.19Z" fill="url(#paint1_linear_14_842)"/>
<path d="M134.49 204.93C92.0002 204.35 57.4102 216.56 57.2002 232.21C57.2203 234.848 58.086 237.41 59.6702 239.52C68.2302 251.76 98.0802 261.1 133.72 261.59C169.36 262.08 199.46 253.59 208.34 241.59C209.981 239.523 210.919 236.987 211.02 234.35C211.23 218.66 177 205.51 134.49 204.93Z" fill="#111111" stroke="url(#paint2_linear_14_842)" stroke-miterlimit="10"/>
<path d="M223.23 279.36C180.76 278.78 146.15 291 145.94 306.64C145.953 309.295 146.819 311.875 148.41 314C157 326.2 186.82 335.54 222.46 336C258.1 336.46 288.2 328 297.09 316C298.725 313.931 299.66 311.395 299.76 308.76C300 293.09 265.71 279.94 223.23 279.36Z" fill="#111111" stroke="url(#paint3_linear_14_842)" stroke-miterlimit="10"/>
<path d="M136.43 211.55C98.58 213.55 60.81 199.23 56.43 185.18C56 188.1 56.34 194.61 56.3 197.13C56.09 212.77 90.07 227.88 132.55 228.46C175.03 229.04 209.91 214.87 210.12 199.22C210.12 196.71 211.86 188.22 210.22 185.89C205.67 200.17 174.62 209.56 136.43 211.55Z" fill="url(#paint4_linear_14_842)"/>
<path d="M133.8 155.29C91.32 154.71 56.71 166.93 56.5 182.57C56.5343 185.211 57.4101 187.771 59 189.88C67.53 202.12 97.38 211.47 133 212C168.62 212.53 198.73 204 207.62 192C209.257 189.932 210.193 187.396 210.29 184.76C210.53 169 176.27 155.87 133.8 155.29Z" fill="#111111" stroke="url(#paint5_linear_14_842)" stroke-miterlimit="10"/>
<path d="M300.37 318L300.19 318.11C300.46 315.21 300.53 312.23 299.66 310.98C295.1 325.26 264.05 334.64 225.87 336.63C188.01 338.63 150.25 324.31 145.87 310.26C145.45 313.19 145.79 319.69 145.76 322.21C145.76 322.21 145.53 369.77 147.39 372.21C155.22 385.21 185.31 396.32 221.63 396.82C260.26 397.35 292.63 385.68 298.31 371.82C298.79 371.51 300.37 318 300.37 318Z" fill="url(#paint6_linear_14_842)"/>
<path d="M133.52 77.53C134.768 77.53 135.78 76.5182 135.78 75.27C135.78 74.0218 134.768 73.01 133.52 73.01C132.272 73.01 131.26 74.0218 131.26 75.27C131.26 76.5182 132.272 77.53 133.52 77.53Z" fill="url(#paint7_linear_14_842)"/>
<path d="M165.24 355.82C167.294 355.82 168.96 354.155 168.96 352.1C168.96 350.046 167.294 348.38 165.24 348.38C163.185 348.38 161.52 350.046 161.52 352.1C161.52 354.155 163.185 355.82 165.24 355.82Z" fill="#333333"/>
<g clip-path="url(#clip2_14_842)">
<path d="M77.44 211.88C78.7876 211.88 79.88 210.788 79.88 209.44C79.88 208.092 78.7876 207 77.44 207C76.0924 207 75 208.092 75 209.44C75 210.788 76.0924 211.88 77.44 211.88Z" fill="#111111"/>
</g>
<g clip-path="url(#clip3_14_842)">
<path d="M77.44 261.88C78.7876 261.88 79.88 260.788 79.88 259.44C79.88 258.092 78.7876 257 77.44 257C76.0924 257 75 258.092 75 259.44C75 260.788 76.0924 261.88 77.44 261.88Z" fill="#111111"/>
</g>
</g>
</g>
<defs>
<linearGradient id="paint0_linear_14_842" x1="123.01" y1="99.55" x2="255.43" y2="99.55" gradientUnits="userSpaceOnUse">
<stop stop-color="white"/>
<stop offset="0.01" stop-color="#F9F9F9"/>
<stop offset="0.16" stop-color="#C1C1C1"/>
<stop offset="0.31" stop-color="#909090"/>
<stop offset="0.46" stop-color="#696969"/>
<stop offset="0.6" stop-color="#4A4A4A"/>
<stop offset="0.74" stop-color="#343434"/>
<stop offset="0.88" stop-color="#262626"/>
<stop offset="1" stop-color="#222222"/>
</linearGradient>
<linearGradient id="paint1_linear_14_842" x1="56.8996" y1="256.47" x2="211.63" y2="256.47" gradientUnits="userSpaceOnUse">
<stop offset="0.22" stop-color="#0DA9AF"/>
<stop offset="0.55" stop-color="#0E0AFF"/>
<stop offset="0.81" stop-color="#5700F6"/>
</linearGradient>
<linearGradient id="paint2_linear_14_842" x1="56.6902" y1="233.26" x2="211.52" y2="233.26" gradientUnits="userSpaceOnUse">
<stop stop-color="white"/>
<stop offset="0.05" stop-color="#E8E8E8"/>
<stop offset="0.2" stop-color="#B0B0B0"/>
<stop offset="0.34" stop-color="#7F7F7F"/>
<stop offset="0.48" stop-color="#585858"/>
<stop offset="0.62" stop-color="#393939"/>
<stop offset="0.75" stop-color="#232323"/>
<stop offset="0.88" stop-color="#151515"/>
<stop offset="1" stop-color="#111111"/>
</linearGradient>
<linearGradient id="paint3_linear_14_842" x1="145.44" y1="307.69" x2="300.26" y2="307.69" gradientUnits="userSpaceOnUse">
<stop stop-color="white"/>
<stop offset="0.05" stop-color="#E8E8E8"/>
<stop offset="0.2" stop-color="#B0B0B0"/>
<stop offset="0.34" stop-color="#7F7F7F"/>
<stop offset="0.48" stop-color="#585858"/>
<stop offset="0.62" stop-color="#393939"/>
<stop offset="0.75" stop-color="#232323"/>
<stop offset="0.88" stop-color="#151515"/>
<stop offset="1" stop-color="#111111"/>
</linearGradient>
<linearGradient id="paint4_linear_14_842" x1="56.21" y1="206.83" x2="210.93" y2="206.83" gradientUnits="userSpaceOnUse">
<stop offset="0.22" stop-color="#0DA9AF"/>
<stop offset="0.55" stop-color="#0E0AFF"/>
<stop offset="0.81" stop-color="#5700F6"/>
</linearGradient>
<linearGradient id="paint5_linear_14_842" x1="56" y1="183.62" x2="210.82" y2="183.62" gradientUnits="userSpaceOnUse">
<stop stop-color="white"/>
<stop offset="0.05" stop-color="#E8E8E8"/>
<stop offset="0.2" stop-color="#B0B0B0"/>
<stop offset="0.34" stop-color="#7F7F7F"/>
<stop offset="0.48" stop-color="#585858"/>
<stop offset="0.62" stop-color="#393939"/>
<stop offset="0.75" stop-color="#232323"/>
<stop offset="0.88" stop-color="#151515"/>
<stop offset="1" stop-color="#111111"/>
</linearGradient>
<linearGradient id="paint6_linear_14_842" x1="145.64" y1="353.55" x2="300.37" y2="353.55" gradientUnits="userSpaceOnUse">
<stop offset="0.22" stop-color="#0DA9AF"/>
<stop offset="0.55" stop-color="#0E0AFF"/>
<stop offset="0.81" stop-color="#5700F6"/>
</linearGradient>
<linearGradient id="paint7_linear_14_842" x1="131.25" y1="75.27" x2="135.78" y2="75.27" gradientUnits="userSpaceOnUse">
<stop stop-color="white"/>
<stop offset="0.01" stop-color="#F9F9F9"/>
<stop offset="0.16" stop-color="#C1C1C1"/>
<stop offset="0.31" stop-color="#909090"/>
<stop offset="0.46" stop-color="#696969"/>
<stop offset="0.6" stop-color="#4A4A4A"/>
<stop offset="0.74" stop-color="#343434"/>
<stop offset="0.88" stop-color="#262626"/>
<stop offset="1" stop-color="#222222"/>
</linearGradient>
<clipPath id="clip0_14_842">
<rect width="372" height="372" fill="white"/>
</clipPath>
<clipPath id="clip1_14_842">
<rect width="244.37" height="358.85" fill="white" transform="translate(56 38)"/>
</clipPath>
<clipPath id="clip2_14_842">
<rect width="4.89" height="4.89" fill="white" transform="translate(75 207)"/>
</clipPath>
<clipPath id="clip3_14_842">
<rect width="4.89" height="4.89" fill="white" transform="translate(75 257)"/>
</clipPath>
</defs>
</svg>
