<svg width="372" height="372" viewBox="0 0 372 372" fill="none" xmlns="http://www.w3.org/2000/svg">
<rect x="0.5" y="0.5" width="371" height="371" stroke="#333333"/>
<g clip-path="url(#clip0_42_59)">
<path d="M186.843 45V73.1354L51.3174 88.6725V68.1593L186.843 45Z" fill="url(#paint0_linear_42_59)"/>
<path d="M186.843 106.961V136.829L51.3174 142.309V118.541L186.843 106.961Z" fill="url(#paint1_linear_42_59)"/>
<path d="M186.843 173.793V207.724L51.3174 192.292V168.512L186.843 173.793Z" fill="url(#paint2_linear_42_59)"/>
<path d="M186.843 242.873V267.25L51.3174 242.873V220.322L186.843 242.873Z" fill="url(#paint3_linear_42_59)"/>
<path d="M24.6309 316.449L55.7235 308.44L88.5785 316.203L57.4759 324.223L24.6309 316.449Z" stroke="#333333" stroke-width="1.25" stroke-linejoin="round"/>
<path d="M55.7236 308.44L86.8162 300.432L119.671 308.194L88.5787 316.203L55.7236 308.44Z" stroke="#333333" stroke-width="1.25" stroke-linejoin="round"/>
<path d="M86.8164 300.432L117.919 292.423L150.774 300.186L119.671 308.194L86.8164 300.432Z" stroke="#333333" stroke-width="1.25" stroke-linejoin="round"/>
<path d="M117.919 292.423L149.012 284.415L181.867 292.177L150.774 300.186L117.919 292.423Z" stroke="#333333" stroke-width="1.25" stroke-linejoin="round"/>
<path d="M149.012 284.414L180.114 276.406L212.969 284.169L181.867 292.177L149.012 284.414Z" stroke="#333333" stroke-width="1.25" stroke-linejoin="round"/>
<path d="M57.4756 324.223L88.5782 316.203L121.433 323.966L90.3306 331.986L57.4756 324.223Z" stroke="#333333" stroke-width="1.25" stroke-linejoin="round"/>
<path d="M88.5781 316.203L119.671 308.194L152.526 315.957L121.433 323.966L88.5781 316.203Z" stroke="#333333" stroke-width="1.25" stroke-linejoin="round"/>
<path d="M119.671 308.194L150.774 300.186L183.629 307.949L152.526 315.957L119.671 308.194Z" stroke="#333333" stroke-width="1.25" stroke-linejoin="round"/>
<path d="M150.773 300.186L181.866 292.177L214.721 299.94L183.628 307.949L150.773 300.186Z" stroke="#333333" stroke-width="1.25" stroke-linejoin="round"/>
<path d="M181.866 292.177L212.969 284.169L245.814 291.931L214.721 299.94L181.866 292.177Z" stroke="#333333" stroke-width="1.25" stroke-linejoin="round"/>
<path d="M90.3311 331.986L121.434 323.966L154.279 331.74L123.186 339.749L90.3311 331.986Z" stroke="#333333" stroke-width="1.25" stroke-linejoin="round"/>
<path d="M121.434 323.966L152.526 315.957L185.381 323.72L154.279 331.74L121.434 323.966Z" stroke="#333333" stroke-width="1.25" stroke-linejoin="round"/>
<path d="M152.526 315.957L183.629 307.948L216.474 315.711L185.381 323.72L152.526 315.957Z" stroke="#333333" stroke-width="1.25" stroke-linejoin="round"/>
<path d="M183.629 307.949L214.722 299.94L247.577 307.703L216.474 315.711L183.629 307.949Z" stroke="#333333" stroke-width="1.25" stroke-linejoin="round"/>
<path d="M214.722 299.94L245.814 291.931L278.669 299.694L247.577 307.703L214.722 299.94Z" stroke="#333333" stroke-width="1.25" stroke-linejoin="round"/>
<path d="M123.186 339.749L154.278 331.74L187.133 339.503L156.041 347.511L123.186 339.749Z" stroke="#333333" stroke-width="1.25" stroke-linejoin="round"/>
<path d="M154.278 331.74L185.381 323.72L218.236 331.494L187.133 339.503L154.278 331.74Z" stroke="#333333" stroke-width="1.25" stroke-linejoin="round"/>
<path d="M185.381 323.72L216.473 315.711L249.329 323.474L218.236 331.494L185.381 323.72Z" stroke="#333333" stroke-width="1.25" stroke-linejoin="round"/>
<path d="M216.474 315.711L247.576 307.703L280.431 315.465L249.329 323.474L216.474 315.711Z" stroke="#333333" stroke-width="1.25" stroke-linejoin="round"/>
<path d="M247.576 307.703L278.669 299.694L311.524 307.457L280.431 315.465L247.576 307.703Z" stroke="#333333" stroke-width="1.25" stroke-linejoin="round"/>
<path d="M156.041 347.511L187.134 339.503L219.989 347.266L188.896 355.274L156.041 347.511Z" stroke="#333333" stroke-width="1.25" stroke-linejoin="round"/>
<path d="M187.134 339.503L218.236 331.494L251.091 339.257L219.989 347.266L187.134 339.503Z" stroke="#333333" stroke-width="1.25" stroke-linejoin="round"/>
<path d="M218.236 331.494L249.329 323.474L282.184 331.237L251.091 339.257L218.236 331.494Z" stroke="#333333" stroke-width="1.25" stroke-linejoin="round"/>
<path d="M249.329 323.474L280.432 315.465L313.277 323.228L282.184 331.237L249.329 323.474Z" stroke="#333333" stroke-width="1.25" stroke-linejoin="round"/>
<path d="M280.432 315.465L311.524 307.457L344.379 315.219L313.277 323.228L280.432 315.465Z" stroke="#333333" stroke-width="1.25" stroke-linejoin="round"/>
<path d="M186.843 45V73.1354L328.477 86.0499V67.9134L186.843 45Z" fill="url(#paint4_linear_42_59)"/>
<path d="M186.843 106.961V136.829L328.477 142.262V119.618L186.843 106.961Z" fill="url(#paint5_linear_42_59)"/>
<path d="M186.843 173.793V207.724L328.477 194.131V170.971L186.843 173.793Z" fill="url(#paint6_linear_42_59)"/>
<path d="M186.843 242.873V267.25L328.477 246.573V227.664L186.843 242.873Z" fill="url(#paint7_linear_42_59)"/>
<path d="M51.3174 88.6725L186.843 99.7955L328.477 86.0498L186.843 73.1354L51.3174 88.6725Z" fill="url(#paint8_linear_42_59)"/>
<path d="M51.3174 142.309L186.843 149.627L328.477 142.262L186.843 136.829L51.3174 142.309Z" fill="#0487DE"/>
<path d="M51.3174 220.322L186.843 213.614L328.477 227.664L186.843 242.873L51.3174 220.322Z" fill="#00A99D"/>
<path d="M51.3174 168.536L186.843 173.793L328.477 170.971L185.311 161.265L51.3174 168.536Z" fill="#29ABE2"/>
</g>
<defs>
<linearGradient id="paint0_linear_42_59" x1="51.3174" y1="66.8363" x2="186.843" y2="66.8363" gradientUnits="userSpaceOnUse">
<stop stop-color="#858585"/>
<stop offset="0.03" stop-color="#787878"/>
<stop offset="0.1" stop-color="#5D5D5D"/>
<stop offset="0.18" stop-color="#474747"/>
<stop offset="0.27" stop-color="#363636"/>
<stop offset="0.39" stop-color="#2B2B2B"/>
<stop offset="0.55" stop-color="#242424"/>
<stop offset="1" stop-color="#222222"/>
</linearGradient>
<linearGradient id="paint1_linear_42_59" x1="51.3174" y1="124.641" x2="186.843" y2="124.641" gradientUnits="userSpaceOnUse">
<stop stop-color="#858585"/>
<stop offset="0.03" stop-color="#787878"/>
<stop offset="0.1" stop-color="#5D5D5D"/>
<stop offset="0.18" stop-color="#474747"/>
<stop offset="0.27" stop-color="#363636"/>
<stop offset="0.39" stop-color="#2B2B2B"/>
<stop offset="0.55" stop-color="#242424"/>
<stop offset="1" stop-color="#222222"/>
</linearGradient>
<linearGradient id="paint2_linear_42_59" x1="51.3174" y1="188.124" x2="186.843" y2="188.124" gradientUnits="userSpaceOnUse">
<stop stop-color="#858585"/>
<stop offset="0.03" stop-color="#787878"/>
<stop offset="0.1" stop-color="#5D5D5D"/>
<stop offset="0.18" stop-color="#474747"/>
<stop offset="0.27" stop-color="#363636"/>
<stop offset="0.39" stop-color="#2B2B2B"/>
<stop offset="0.55" stop-color="#242424"/>
<stop offset="1" stop-color="#222222"/>
</linearGradient>
<linearGradient id="paint3_linear_42_59" x1="51.3174" y1="243.786" x2="186.843" y2="243.786" gradientUnits="userSpaceOnUse">
<stop stop-color="#858585"/>
<stop offset="0.03" stop-color="#787878"/>
<stop offset="0.1" stop-color="#5D5D5D"/>
<stop offset="0.18" stop-color="#474747"/>
<stop offset="0.27" stop-color="#363636"/>
<stop offset="0.39" stop-color="#2B2B2B"/>
<stop offset="0.55" stop-color="#242424"/>
<stop offset="1" stop-color="#222222"/>
</linearGradient>
<linearGradient id="paint4_linear_42_59" x1="186.843" y1="65.5249" x2="328.477" y2="65.5249" gradientUnits="userSpaceOnUse">
<stop stop-color="white"/>
<stop offset="0.01" stop-color="#F9F9F9"/>
<stop offset="0.16" stop-color="#C1C1C1"/>
<stop offset="0.31" stop-color="#909090"/>
<stop offset="0.46" stop-color="#696969"/>
<stop offset="0.6" stop-color="#4A4A4A"/>
<stop offset="0.74" stop-color="#343434"/>
<stop offset="0.88" stop-color="#262626"/>
<stop offset="1" stop-color="#222222"/>
</linearGradient>
<linearGradient id="paint5_linear_42_59" x1="186.843" y1="124.606" x2="328.477" y2="124.606" gradientUnits="userSpaceOnUse">
<stop stop-color="white"/>
<stop offset="0.01" stop-color="#F9F9F9"/>
<stop offset="0.16" stop-color="#C1C1C1"/>
<stop offset="0.31" stop-color="#909090"/>
<stop offset="0.46" stop-color="#696969"/>
<stop offset="0.6" stop-color="#4A4A4A"/>
<stop offset="0.74" stop-color="#343434"/>
<stop offset="0.88" stop-color="#262626"/>
<stop offset="1" stop-color="#222222"/>
</linearGradient>
<linearGradient id="paint6_linear_42_59" x1="186.843" y1="189.342" x2="328.477" y2="189.342" gradientUnits="userSpaceOnUse">
<stop stop-color="white"/>
<stop offset="0.01" stop-color="#F9F9F9"/>
<stop offset="0.16" stop-color="#C1C1C1"/>
<stop offset="0.31" stop-color="#909090"/>
<stop offset="0.46" stop-color="#696969"/>
<stop offset="0.6" stop-color="#4A4A4A"/>
<stop offset="0.74" stop-color="#343434"/>
<stop offset="0.88" stop-color="#262626"/>
<stop offset="1" stop-color="#222222"/>
</linearGradient>
<linearGradient id="paint7_linear_42_59" x1="186.843" y1="247.463" x2="328.477" y2="247.463" gradientUnits="userSpaceOnUse">
<stop stop-color="white"/>
<stop offset="0.01" stop-color="#F9F9F9"/>
<stop offset="0.16" stop-color="#C1C1C1"/>
<stop offset="0.31" stop-color="#909090"/>
<stop offset="0.46" stop-color="#696969"/>
<stop offset="0.6" stop-color="#4A4A4A"/>
<stop offset="0.74" stop-color="#343434"/>
<stop offset="0.88" stop-color="#262626"/>
<stop offset="1" stop-color="#222222"/>
</linearGradient>
<linearGradient id="paint8_linear_42_59" x1="191.059" y1="132.907" x2="188.171" y2="50.249" gradientUnits="userSpaceOnUse">
<stop stop-color="#2E3192"/>
<stop offset="1" stop-color="#662D91"/>
</linearGradient>
<clipPath id="clip0_42_59">
<rect width="321" height="311" fill="white" transform="translate(24 45)"/>
</clipPath>
</defs>
</svg>
