<svg width="415" height="507" viewBox="0 0 415 507" fill="none" xmlns="http://www.w3.org/2000/svg">
    <path d="M77.5 241a8.5 8.5 0 1 0 0-17 8.5 8.5 0 0 0 0 17z" fill="url(#cwgf50lloa)"/>
    <path d="M400.594 136.184a8.5 8.5 0 0 0-2.41-11.777 8.5 8.5 0 1 0 2.41 11.777z" fill="url(#1gj5x381wb)"/>
    <path d="M345 31c6.627 0 12-5.372 12-12 0-6.627-5.373-12-12-12s-12 5.373-12 12c0 6.628 5.373 12 12 12z" fill="url(#0fc733b4tc)"/>
    <g clip-path="url(#b7ehpxhdxd)">
        <path d="M272.96 87.53s4.57 52-70.09 82c-74.67 30-96 70-96.67 84.67 0 0-8.44-20 27.11-61.33 35.56-41.33 30.67-53.33 30.67-53.33s-54.67-4.89-51.56-42.67c0 0 15.56-20.44 46.67-24.44 0 0 36-38.67 87.56-30.22l11.75-7.25c2.19-1.35 5-1.24 7.04.33 2.34 1.8 4.97 4.45 5.21 7.37.11 8.44 15.82 20.39 2.32 44.89l-.01-.02z" fill="url(#b7p0p0hy6e)"/>
        <path d="M212.828 54.093c4.47-2.83 7.278-6.415 6.27-8.006-1.007-1.591-5.448-.587-9.918 2.244-4.47 2.83-7.277 6.414-6.27 8.006 1.008 1.59 5.448.586 9.918-2.244z" fill="url(#onp5b76wxf)"/>
        <path d="M235.45 103.87c-.65-1.68-2.5-2.68-4.9-2.93-9.77-3.52-19.2-12.76-14.57-26.34h-.12c.34-1.25.23-2.52-.43-3.56-1.5-2.36-5.22-2.69-8.32-.72-1.9 1.2-3.12 2.98-3.44 4.72-5.95 20.01 5.89 47.13 24.36 38.11 5.1-2.49 8.62-6.2 7.42-9.28z" fill="url(#hg04oyjj1g)"/>
        <path d="M105.91 250.21c-7.45 7.36 16.85 90.42 96.67 52 73.68-35.47 112 13.33 112 13.33s-1.19-112.86-95.93-99.3c-9.5 1.36-18.51 5.17-26.18 10.93-15.34 11.52-48.98 31.82-86.55 23.04h-.01z" fill="url(#mr9jfkc9rh)"/>
        <path d="M104.8 254.19s-7.55 117.85 79.34 111.87c63.05-4.34 68.76-36.31 97.83-47.73 22.24-8.74 43.87 14.15 34.15 35.98-5.45 12.24-13.12 28.42-23.89 49.8-10.14 20.14-5.95 44.83 10.88 59.84 13.61 12.14 33.48 16.45 59.93-10.79 35.76-36.83 39.38-85.6 37.31-116.05-1.81-26.69-13.69-51.88-33.95-69.36-25.07-21.63-66.9-35.27-129.06 10.9-113.02 83.96-132.54-24.46-132.54-24.46z" fill="url(#xo224ywi4i)"/>
        <path d="m246.72 42.18 4.67-3s4.48 1.49 8.62 5.96c1.67 5 11.21.21 11.21.21s3.12 7.23 4.17 10.5c-3 2-22.33 16.33-23.33 27.33s-23.67-.33-15.67-15c8-14.67 15.33-20.67 10.33-26z" fill="url(#2gg65vxudj)"/>
        <path d="M276.79 58.69s-20.83 11.94-23.16 23.94c-2.33 12 19.34 4.89 19.34 4.89s8.82-14.61 3.82-28.83z" fill="url(#w4e7r7oe5k)"/>
        <path d="M315.79 247.59c-1.96 18.78-11.47 42.14-27.08 69.2-.13-.3 8 .26 8 .26 2.88 3.09 54.69-33.99 51.31-61.7.58-.28-9.37-6.27-32.23-7.77v.01z" fill="url(#tdo21x6idl)"/>
        <path d="M362.01 264.28c-4.14 24.77-22.6 45.55-48.04 64.19 0 0 1.59 2.72 1.62 3.17 0 0 46.38-.01 75.71-30.23-3.85-14.6-14.55-29.04-29.29-37.12v-.01z" fill="url(#m2du3t0jkm)"/>
        <path d="M317.86 349.61c1.33-.44 69.88 1.13 80.1-29.09 0 0 7.24 28.2 1.9 37.53-5.34 9.33-76.96 4.44-82.74-4.44l.73-4h.01z" fill="url(#7tb93kh9vn)"/>
        <path d="m309.13 369.17-4.67 11.3s45.66 35.37 81.22 38.04c4.41-5.51 7.68-16.77 10.68-29.4-26.92 7.02-74.42-3.57-87.23-19.93v-.01z" fill="url(#76jimy6pko)"/>
        <path d="M270.45 105.9c-1.07.15-4.59 37.32-88.25 72.6-84.01 35.43-77.41 76.74-77.41 76.74s16.17 41.26 82.77-22.08c0 0 52.09-41.49 103.42 9.17-2.28-8.96-49.46-46.51-20.54-136.44l.01.01z" fill="url(#5zmyu8w04p)"/>
        <path d="M111.79 222.01C51.75 241.74 10.25 264.8 13.7 281.1c4.83 22.79 91.54 23.72 193.68 2.08 102.13-21.65 181.01-57.67 176.18-80.47-3.51-16.58-52.7-21.59-117.27-14.76" stroke="#fff" stroke-linecap="round" stroke-linejoin="round"/>
        <path d="M105.33 286.48c-31.7 47.03-44.47 86.31-29.4 101.38 23.71 23.71 107.33-21.47 186.77-100.91 79.44-79.44 124.62-163.06 100.91-186.77-14.68-14.68-52.33-2.95-97.73 26.96" stroke="#fff" stroke-width="2" stroke-linecap="round" stroke-linejoin="round"/>
    </g>
    <defs>
        <linearGradient id="cwgf50lloa" x1="84.858" y1="228.249" x2="70.135" y2="236.749" gradientUnits="userSpaceOnUse">
            <stop stop-color="#C4EBB7"/>
            <stop offset=".359" stop-color="#0DA9AF"/>
            <stop offset=".81" stop-color="#5423AD"/>
        </linearGradient>
        <linearGradient id="1gj5x381wb" x1="394.008" y1="123.018" x2="392.989" y2="139.987" gradientUnits="userSpaceOnUse">
            <stop stop-color="#C4EBB7"/>
            <stop offset=".359" stop-color="#0DA9AF"/>
            <stop offset="1" stop-color="#5423AD"/>
        </linearGradient>
        <linearGradient id="0fc733b4tc" x1="355.388" y1="12.999" x2="334.603" y2="24.999" gradientUnits="userSpaceOnUse">
            <stop stop-color="#C4EBB7"/>
            <stop offset=".359" stop-color="#0DA9AF"/>
            <stop offset=".81" stop-color="#474FAB"/>
        </linearGradient>
        <linearGradient id="b7p0p0hy6e" x1="270.78" y1="12.84" x2="120" y2="181.5" gradientUnits="userSpaceOnUse">
            <stop stop-color="#6129C6"/>
            <stop offset=".739" stop-color="#547BE0"/>
            <stop offset="1" stop-color="#B1E2C9"/>
        </linearGradient>
        <linearGradient id="onp5b76wxf" x1="202.705" y1="51.21" x2="219.305" y2="51.21" gradientUnits="userSpaceOnUse">
            <stop stop-color="#70CACF"/>
            <stop offset="1" stop-color="#D7EDBA"/>
        </linearGradient>
        <linearGradient id="hg04oyjj1g" x1="202.11" y1="91.99" x2="235.68" y2="91.99" gradientUnits="userSpaceOnUse">
            <stop stop-color="#D7EDBA"/>
            <stop offset="1" stop-color="#70CACF"/>
        </linearGradient>
        <linearGradient id="mr9jfkc9rh" x1="104.63" y1="265.33" x2="314.57" y2="265.33" gradientUnits="userSpaceOnUse">
            <stop stop-color="#3F8DD8"/>
            <stop offset=".22" stop-color="#86C2C9"/>
            <stop offset=".343" stop-color="#9EE2AF"/>
            <stop offset=".448" stop-color="#ABF3A0"/>
            <stop offset=".583" stop-color="#9ED69F"/>
            <stop offset=".859" stop-color="#231D83"/>
            <stop offset="1" stop-color="#201982"/>
        </linearGradient>
        <linearGradient id="xo224ywi4i" x1="146.19" y1="235.84" x2="388.45" y2="406.22" gradientUnits="userSpaceOnUse">
            <stop stop-color="#524AEA"/>
            <stop offset=".338" stop-color="#5190EA"/>
            <stop offset=".573" stop-color="#4E6BCA"/>
            <stop offset=".692" stop-color="#4B4EB1"/>
            <stop offset=".854" stop-color="#482D94"/>
            <stop offset="1" stop-color="#623CBB"/>
        </linearGradient>
        <linearGradient id="2gg65vxudj" x1="267.01" y1="50.85" x2="234.7" y2="74.59" gradientUnits="userSpaceOnUse">
            <stop stop-color="#D7EDBA"/>
            <stop offset="1" stop-color="#70CACF"/>
        </linearGradient>
        <linearGradient id="w4e7r7oe5k" x1="277.9" y1="67.44" x2="260.92" y2="85.61" gradientUnits="userSpaceOnUse">
            <stop stop-color="#D7EDBA"/>
            <stop offset="1" stop-color="#70CACF"/>
        </linearGradient>
        <linearGradient id="tdo21x6idl" x1="327.72" y1="264.11" x2="296.25" y2="314.58" gradientUnits="userSpaceOnUse">
            <stop stop-color="#ABDBCA"/>
            <stop offset=".47" stop-color="#5291EB"/>
            <stop offset=".57" stop-color="#5084E0"/>
            <stop offset=".74" stop-color="#4D63C3"/>
            <stop offset=".98" stop-color="#482E95"/>
            <stop offset="1" stop-color="#482991"/>
        </linearGradient>
        <linearGradient id="m2du3t0jkm" x1="318.11" y1="326.26" x2="380.6" y2="280.7" gradientUnits="userSpaceOnUse">
            <stop stop-color="#482991"/>
            <stop offset=".47" stop-color="#5291EB"/>
            <stop offset=".56" stop-color="#5E9BE6"/>
            <stop offset=".71" stop-color="#7FB6DA"/>
            <stop offset=".89" stop-color="#ABDBCA"/>
        </linearGradient>
        <linearGradient id="7tb93kh9vn" x1="317.13" y1="341.81" x2="401.83" y2="341.81" gradientUnits="userSpaceOnUse">
            <stop stop-color="#482991"/>
            <stop offset=".47" stop-color="#5291EB"/>
            <stop offset=".56" stop-color="#5E9BE6"/>
            <stop offset=".71" stop-color="#7FB6DA"/>
            <stop offset=".89" stop-color="#ABDBCA"/>
        </linearGradient>
        <linearGradient id="76jimy6pko" x1="304.46" y1="393.84" x2="396.36" y2="393.84" gradientUnits="userSpaceOnUse">
            <stop stop-color="#482991"/>
            <stop offset=".25" stop-color="#5291EB"/>
            <stop offset=".36" stop-color="#5E9BE5"/>
            <stop offset=".57" stop-color="#7FB7D6"/>
            <stop offset=".84" stop-color="#B4E5BF"/>
            <stop offset=".85" stop-color="#B8E8BE"/>
        </linearGradient>
        <linearGradient id="5zmyu8w04p" x1="131.58" y1="252.33" x2="296.58" y2="165.8" gradientUnits="userSpaceOnUse">
            <stop stop-color="#671DB0"/>
            <stop offset=".729" stop-color="#547EE0"/>
            <stop offset="1" stop-color="#B1E2C9"/>
        </linearGradient>
        <clipPath id="b7ehpxhdxd">
            <path fill="#fff" transform="translate(13 34)" d="M0 0h388.83v439.42H0z"/>
        </clipPath>
    </defs>
</svg>
