<svg width="519" height="473" viewBox="0 0 519 473" fill="none" xmlns="http://www.w3.org/2000/svg">
<g clip-path="url(#clip0_97_268)">
<path d="M54.535 379.954C54.535 379.954 80.5027 406.101 134.644 394.212L124.557 351.107L54.5306 379.94L54.535 379.954Z" fill="url(#paint0_linear_97_268)"/>
<path d="M163.001 285.886L207.619 251.474C207.619 251.474 177.784 257.692 151.172 194.761C149.661 191.192 145.166 190.909 143.816 194.326C135.249 215.963 142.902 259.54 163.001 285.886Z" fill="url(#paint1_linear_97_268)"/>
<path d="M143.544 391.168C163.65 358.959 283.747 273.505 283.747 273.505C258.009 373.521 146.887 393.091 143.544 391.168V391.168Z" fill="#4C46DE"/>
<path d="M143.544 391.168C163.65 358.959 283.747 273.505 283.747 273.505C258.009 373.521 146.887 393.091 143.544 391.168V391.168Z" fill="#F4FBF7"/>
<path d="M48.2845 368.809L47.7012 370.132C45.5626 374.983 49.6643 380.973 54.5352 379.954C54.596 379.934 54.6568 379.915 54.722 379.909C60.8487 378.46 73.2412 379.824 73.2412 379.824C73.2412 379.824 103.29 363.385 133.323 394.435C133.323 394.435 134.556 395.029 139.873 394.232C145.189 393.435 180.266 385.216 196.092 362.74C211.917 340.264 221.894 323.183 241.655 318.928C261.417 314.672 283.74 273.523 283.74 273.523C283.74 273.523 290.86 157.032 347.516 159.736C347.516 159.736 300.199 137.105 221.035 229.841C208.198 244.875 193.925 258.849 176.726 267.37C122.706 294.159 50.092 324.497 48.2767 368.827L48.2845 368.809Z" fill="url(#paint2_linear_97_268)"/>
<path d="M392.514 153.622C392.514 153.622 380.648 142.839 391.742 132.848C403.567 122.08 415.027 117.614 423.118 117.163C424.647 117.086 424.898 114.761 423.447 114.071C413.97 109.579 393.815 103.678 376.032 122.652C351.788 148.504 333.616 150.646 333.616 150.646C353.942 147.742 373.507 149.054 392.502 153.626L392.514 153.622Z" fill="url(#paint3_linear_97_268)"/>
<path d="M284.698 172.384C284.698 172.384 325.225 146.492 373.739 171.076C422.253 195.661 451.743 179.392 462.878 148.613C463.382 147.209 462.196 145.629 460.844 145.923C448.117 148.638 400.626 158.032 384.893 150.542C358.365 141.695 296.456 151.642 284.702 172.397L284.698 172.384Z" fill="url(#paint4_linear_97_268)"/>
<path d="M111.429 360.585C108.128 365.32 99.9574 371.454 80.2513 367.973C78.0512 367.581 76.6899 364.859 77.7058 362.792C81.3034 355.414 100.261 355.282 109.076 355.631C111.355 355.725 112.774 358.67 111.433 360.599L111.429 360.585Z" fill="url(#paint5_linear_97_268)"/>
<path d="M380.484 222.701C383.155 224.503 386.782 223.862 388.585 221.269C390.388 218.675 389.684 215.112 387.013 213.311C384.343 211.509 380.716 212.151 378.913 214.744C377.11 217.337 377.814 220.9 380.484 222.701Z" fill="url(#paint6_linear_97_268)"/>
<path d="M369.467 252.775C371.392 252.762 372.963 251.221 372.977 249.334C372.99 247.447 371.441 245.928 369.516 245.942C367.591 245.955 366.019 247.496 366.006 249.383C365.993 251.27 367.542 252.789 369.467 252.775Z" fill="url(#paint7_linear_97_268)"/>
<path d="M431.656 277.775C438.268 277.729 443.666 272.436 443.712 265.953C443.758 259.47 438.435 254.252 431.822 254.298C425.209 254.344 419.811 259.637 419.765 266.12C419.719 272.603 425.043 277.821 431.656 277.775Z" fill="url(#paint8_linear_97_268)"/>
<g clip-path="url(#clip1_97_268)">
<path d="M249.528 399.99C239.546 402.796 224.707 374.732 218.783 362.524C218.62 362.182 218.722 361.779 219.031 361.605C219.332 361.449 219.706 361.588 219.885 361.941C231.896 386.699 242.841 400.431 249.156 398.655C261.655 395.142 257.348 342.127 239.549 280.472C221.749 218.816 197.086 171.524 184.587 175.038C176.373 177.347 175.271 202.956 181.778 240.256C181.847 240.626 181.627 240.975 181.283 241.029C180.951 241.079 180.617 240.813 180.545 240.43C173.808 201.799 175.206 176.236 184.203 173.707C197.58 169.946 222.409 216.702 240.724 280.141C259.038 343.58 262.906 396.229 249.528 399.99Z" fill="white"/>
<path d="M292.47 348.494C286.72 349.967 276.245 339.64 261.474 322.713C261.281 322.495 261.289 322.152 261.485 321.953C261.681 321.755 262.002 321.776 262.195 321.994C275.219 336.921 287.983 350.296 293.102 347.056C303.178 340.69 288.642 295.794 260.698 246.99C232.75 198.173 201.81 163.623 191.737 170.003C183.902 174.949 191.255 204.816 209.625 242.631C209.747 242.897 209.664 243.215 209.412 243.353C209.169 243.475 208.869 243.374 208.73 243.098C189.822 204.145 182.772 174.393 191.197 169.073C201.92 162.289 232.815 196.286 261.533 246.45C290.25 296.613 304.356 341.219 293.629 347.989C293.263 348.216 292.882 348.388 292.47 348.494V348.494Z" fill="white"/>
<path d="M300.698 346.072C293.606 348.174 282.329 334.329 270.515 309.04C270.431 308.851 270.496 308.649 270.662 308.554C270.819 308.477 271.035 308.55 271.118 308.739C282.761 333.683 293.742 347.371 300.49 345.371C311.924 341.984 308.381 295.853 292.586 242.542C276.79 189.23 254.636 148.63 243.202 152.017C235.626 154.262 234.446 176.738 240.192 209.269C240.225 209.473 240.097 209.648 239.927 209.683C239.741 209.708 239.576 209.574 239.531 209.374C233.62 175.961 234.951 153.715 242.986 151.334C248.766 149.622 257.184 158.213 266.691 175.525C276.113 192.694 285.53 216.437 293.218 242.385C300.906 268.333 305.943 293.374 307.394 312.904C308.866 332.597 306.483 344.374 300.689 346.09L300.698 346.072Z" fill="white"/>
<path d="M325.227 243.67C322.214 244.716 316.702 239.644 312.521 235.091C307.208 229.301 301.055 221.161 295.65 212.733C295.548 212.58 295.572 212.37 295.695 212.27C295.817 212.169 296.004 212.22 296.106 212.372C306.734 228.946 320.891 245.334 325.275 242.903C331.686 239.337 325.985 214.227 312.57 186.902C306.05 173.622 298.686 161.818 291.842 153.673C285.18 145.738 279.639 142.149 276.627 143.829C272.286 146.244 273.35 158.618 279.398 176.117C279.46 176.297 279.391 176.48 279.24 176.533C279.088 176.585 278.92 176.485 278.858 176.305C272.689 158.458 271.724 145.775 276.333 143.224C279.633 141.4 285.282 144.952 292.25 153.243C299.133 161.432 306.541 173.293 313.083 186.638C326.658 214.282 332.274 239.811 325.585 243.517C325.475 243.584 325.346 243.629 325.227 243.67Z" fill="white"/>
</g>
</g>
<path d="M231.486 109.858C233.411 109.845 234.982 108.304 234.995 106.417C235.009 104.53 233.459 103.011 231.534 103.024C229.609 103.037 228.038 104.578 228.025 106.465C228.011 108.352 229.561 109.871 231.486 109.858Z" fill="url(#paint9_linear_97_268)"/>
<path d="M307.079 86.1209C307.698 90.4956 311.746 93.5401 316.121 92.9211C320.495 92.302 323.54 88.2538 322.921 83.8791C322.302 79.5044 318.253 76.4599 313.879 77.0789C309.504 77.698 306.459 81.7462 307.079 86.1209Z" fill="url(#paint10_linear_97_268)"/>
<path d="M350 31C356.627 31 362 25.6275 362 19C362 12.3726 356.627 7 350 7C343.373 7 338 12.3726 338 19C338 25.6275 343.373 31 350 31Z" fill="url(#paint11_linear_97_268)"/>
<path d="M482.474 90.7078C486.602 90.6791 489.972 87.375 490.001 83.3279C490.03 79.2809 486.706 76.0233 482.578 76.052C478.45 76.0807 475.08 79.3848 475.052 83.4319C475.023 87.479 478.346 90.7365 482.474 90.7078Z" fill="url(#paint12_linear_97_268)"/>
<defs>
<linearGradient id="paint0_linear_97_268" x1="59.3331" y1="395.033" x2="131.24" y2="372.153" gradientUnits="userSpaceOnUse">
<stop stop-color="#90B8F2"/>
<stop offset="0.55" stop-color="#DFF3E8"/>
<stop offset="0.57" stop-color="#E3F4EA"/>
<stop offset="0.67" stop-color="#F2FAF6"/>
<stop offset="0.79" stop-color="#FCFDFC"/>
<stop offset="0.96" stop-color="white"/>
</linearGradient>
<linearGradient id="paint1_linear_97_268" x1="142.799" y1="240.449" x2="200.903" y2="230.747" gradientUnits="userSpaceOnUse">
<stop stop-color="#482991"/>
<stop offset="1" stop-color="#5291EB"/>
</linearGradient>
<linearGradient id="paint2_linear_97_268" x1="35.7294" y1="338.273" x2="370.437" y2="231.772" gradientUnits="userSpaceOnUse">
<stop stop-color="#482991"/>
<stop offset="0.36" stop-color="#4930D9"/>
<stop offset="0.64" stop-color="#5291EB"/>
<stop offset="0.7" stop-color="#5E9BE5"/>
<stop offset="0.81" stop-color="#7FB7D6"/>
<stop offset="0.96" stop-color="#B4E5BF"/>
<stop offset="0.97" stop-color="#B8E8BE"/>
</linearGradient>
<linearGradient id="paint3_linear_97_268" x1="333.817" y1="151.234" x2="426.455" y2="121.758" gradientUnits="userSpaceOnUse">
<stop stop-color="#482991"/>
<stop offset="0.64" stop-color="#5291EB"/>
<stop offset="0.68" stop-color="#5E9BE5"/>
<stop offset="0.77" stop-color="#7FB7D6"/>
<stop offset="0.88" stop-color="#B4E5BF"/>
<stop offset="0.89" stop-color="#B8E8BE"/>
</linearGradient>
<linearGradient id="paint4_linear_97_268" x1="291.314" y1="193.178" x2="460.383" y2="139.382" gradientUnits="userSpaceOnUse">
<stop stop-color="#482991"/>
<stop offset="0.25" stop-color="#5291EB"/>
<stop offset="0.36" stop-color="#5E9BE5"/>
<stop offset="0.57" stop-color="#7FB7D6"/>
<stop offset="0.84" stop-color="#B4E5BF"/>
<stop offset="0.85" stop-color="#B8E8BE"/>
</linearGradient>
<linearGradient id="paint5_linear_97_268" x1="78.1698" y1="367.406" x2="111.448" y2="356.817" gradientUnits="userSpaceOnUse">
<stop stop-color="#5291EB"/>
<stop offset="0.47" stop-color="#A9C8F5"/>
<stop offset="0.96" stop-color="white"/>
</linearGradient>
<linearGradient id="paint6_linear_97_268" x1="389.567" y1="218.482" x2="377.919" y2="217.645" gradientUnits="userSpaceOnUse">
<stop stop-color="#5291EB"/>
<stop offset="1" stop-color="#0DA9AF"/>
</linearGradient>
<linearGradient id="paint7_linear_97_268" x1="372.521" y1="247.629" x2="366.495" y2="251.149" gradientUnits="userSpaceOnUse">
<stop stop-color="#C4EBB7"/>
<stop offset="1" stop-color="#0DA9AF"/>
</linearGradient>
<linearGradient id="paint8_linear_97_268" x1="442.145" y1="260.094" x2="421.446" y2="272.187" gradientUnits="userSpaceOnUse">
<stop stop-color="#C4EBB7"/>
<stop offset="0.359375" stop-color="#0DA9AF"/>
<stop offset="0.81" stop-color="#474FAB"/>
</linearGradient>
<linearGradient id="paint9_linear_97_268" x1="234.539" y1="104.711" x2="228.514" y2="108.231" gradientUnits="userSpaceOnUse">
<stop stop-color="#C4EBB7"/>
<stop offset="1" stop-color="#0DA9AF"/>
</linearGradient>
<linearGradient id="paint10_linear_97_268" x1="319.931" y1="91.2962" x2="310.068" y2="78.6974" gradientUnits="userSpaceOnUse">
<stop stop-color="#0DA9AF"/>
<stop offset="0.81" stop-color="#474FAB"/>
</linearGradient>
<linearGradient id="paint11_linear_97_268" x1="360.388" y1="12.9991" x2="339.603" y2="24.9991" gradientUnits="userSpaceOnUse">
<stop stop-color="#C4EBB7"/>
<stop offset="0.359375" stop-color="#0DA9AF"/>
<stop offset="0.81" stop-color="#474FAB"/>
</linearGradient>
<linearGradient id="paint12_linear_97_268" x1="489.023" y1="79.6705" x2="476.101" y2="87.2196" gradientUnits="userSpaceOnUse">
<stop stop-color="#C4EBB7"/>
<stop offset="1" stop-color="#0DA9AF"/>
</linearGradient>
<clipPath id="clip0_97_268">
<rect width="464.968" height="245.674" fill="white" transform="translate(0 225.983) rotate(-17.6506)"/>
</clipPath>
<clipPath id="clip1_97_268">
<rect width="236.542" height="248.551" fill="white" transform="translate(69.8633 212.471) rotate(-21.2127)"/>
</clipPath>
</defs>
</svg>
