<svg width="510" height="751" viewBox="0 0 510 751" fill="none" xmlns="http://www.w3.org/2000/svg">
    <path d="m363.696 3.468-70.612 35.836 70.612 33.132 73.163-31.583-73.163-37.385z" stroke="#FAFAFA" stroke-width="3" stroke-linejoin="round"/>
    <path d="M363.696 72.436S363 167.902 363 171l-71.732 32.458v100.966l145.59-63.974-75.324-35.836-68.45 31.212-75.498 36.022v-98.053l73.682-35.074 1.816-99.417" stroke="#FAFAFA" stroke-width="3" stroke-linejoin="round"/>
    <path d="M291.268 138.721 363 170l71.5-34 2.358-95.147M291.268 236.982l72.795 35.443-1.081-99.786M364.063 372.628l-72.795 32.646 72.795 32.461-1.794 100.966 72.06-32.369v-99.416l-70.266-34.288zm0 0-72.795-33.524v-34.68l-73.682-32.577-71.649 32.577-69.185-31.999 74.957-31.975-74.957-35.698-73.509 33.571v98.723l144.142 70.263 70.201-36.623M436.859 240.45v96.342l-72.796 35.836V272.425" stroke="#FAFAFA" stroke-width="3" stroke-linejoin="round"/>
    <path d="m291.268 339.104-73.682 31.582v98.145l73.682 37.501M434.329 406.916l-70.266 30.819M434.329 506.332l72.428 32.369-72.428 33.385-72.061-33.385-71-32.369c.735-1.156 0-101.058 0-101.058" stroke="#FAFAFA" stroke-width="3" stroke-linejoin="round"/>
    <path d="m436.859 673.815-2.53-101.729 72.428-33.385v98.122l-69.898 36.992zM362.27 538.701v98.908l74.589 37.247M77 207.255 77.476 170l75.046 37.255-.476 35.227L218 273.465V371" stroke="#FAFAFA" stroke-width="3" stroke-linejoin="round"/>
    <path d="m151.685 208.268 65.401-30.958L141 141.5l-64 29.016M145.937 304.424l1.448 100.85M3.243 238.323l73.509 34.102.476 99.302M145.937 371.727l-69.185 33.547 69.185 32.461 71.649-32.461-71.649-33.547zM146.694 531l-69.185 33.547 69.185 32.461 71.649-32.461L146.694 531z" stroke="#FAFAFA" stroke-width="3" stroke-linejoin="round"/>
    <path d="M217.586 468.831v25.57L146.845 531m0 0-69.617-31.604-.476-94.122-73.509 32.461M146.845 531 76.86 564.896 3.243 527.534v-89.799M146.845 531l-.908-93.265-69.185 34.171-73.509-34.171" stroke="#FAFAFA" stroke-width="3" stroke-linejoin="round"/>
    <path d="M218.343 628.105v25.569l-70.741 36.599m0 0L77.984 658.67l-.475-94.123L4 597.008m143.602 93.265-69.985 33.896L4 686.807v-89.799m143.602 93.265-.908-93.265-69.185 34.172L4 597.008" stroke="#FAFAFA" stroke-width="3" stroke-linejoin="round"/>
    <path d="M368.5 6.5 438 40l-3 95.5-145 68-72.5-28-66 32.5v33.5L77 274 4.5 239.5v97L146 406l71.5-33 74 33v99L435 573v102.5" stroke="url(#fa3gwtuc3a)" stroke-width="7" stroke-linecap="round" stroke-linejoin="round"/>
    <circle cx="365" cy="8" r="8" fill="#FAFAFA"/>
    <circle cx="218" cy="173" r="8" fill="#FAFAFA"/>
    <circle cx="291" cy="405" r="8" fill="#FAFAFA"/>
    <circle cx="77" cy="272" r="8" fill="#FAFAFA"/>
    <circle cx="437" cy="675" r="8" fill="#FAFAFA"/>
    <defs>
        <linearGradient id="fa3gwtuc3a" x1="217.5" y1="12" x2="217.5" y2="543.501" gradientUnits="userSpaceOnUse">
            <stop stop-color="#5121AA"/>
            <stop offset="1" stop-color="#1AF0FE"/>
        </linearGradient>
    </defs>
</svg>
